%TF.GenerationSoftware,KiCad,Pcbnew,9.0.7-9.0.7~ubuntu24.04.1*%
%TF.CreationDate,2026-04-13T21:17:48+05:30*%
%TF.ProjectId,OW_SUB_SEED_SCH,4f575f53-5542-45f5-9345-45445f534348,rev?*%
%TF.SameCoordinates,Original*%
%TF.FileFunction,Copper,L1,Top*%
%TF.FilePolarity,Positive*%
%FSLAX46Y46*%
G04 Gerber Fmt 4.6, Leading zero omitted, Abs format (unit mm)*
G04 Created by KiCad (PCBNEW 9.0.7-9.0.7~ubuntu24.04.1) date 2026-04-13 21:17:48*
%MOMM*%
%LPD*%
G01*
G04 APERTURE LIST*
G04 Aperture macros list*
%AMRoundRect*
0 Rectangle with rounded corners*
0 $1 Rounding radius*
0 $2 $3 $4 $5 $6 $7 $8 $9 X,Y pos of 4 corners*
0 Add a 4 corners polygon primitive as box body*
4,1,4,$2,$3,$4,$5,$6,$7,$8,$9,$2,$3,0*
0 Add four circle primitives for the rounded corners*
1,1,$1+$1,$2,$3*
1,1,$1+$1,$4,$5*
1,1,$1+$1,$6,$7*
1,1,$1+$1,$8,$9*
0 Add four rect primitives between the rounded corners*
20,1,$1+$1,$2,$3,$4,$5,0*
20,1,$1+$1,$4,$5,$6,$7,0*
20,1,$1+$1,$6,$7,$8,$9,0*
20,1,$1+$1,$8,$9,$2,$3,0*%
G04 Aperture macros list end*
%TA.AperFunction,ComponentPad*%
%ADD10C,5.700000*%
%TD*%
%TA.AperFunction,ConnectorPad*%
%ADD11C,10.600000*%
%TD*%
%TA.AperFunction,ComponentPad*%
%ADD12C,1.400000*%
%TD*%
%TA.AperFunction,ComponentPad*%
%ADD13RoundRect,0.770000X-0.980000X0.980000X-0.980000X-0.980000X0.980000X-0.980000X0.980000X0.980000X0*%
%TD*%
%TA.AperFunction,ComponentPad*%
%ADD14C,3.500000*%
%TD*%
%TA.AperFunction,ComponentPad*%
%ADD15R,2.000000X2.000000*%
%TD*%
%TA.AperFunction,ComponentPad*%
%ADD16C,2.000000*%
%TD*%
%TA.AperFunction,ComponentPad*%
%ADD17R,1.530000X1.530000*%
%TD*%
%TA.AperFunction,ComponentPad*%
%ADD18C,1.530000*%
%TD*%
%TA.AperFunction,ComponentPad*%
%ADD19R,2.500000X2.500000*%
%TD*%
%TA.AperFunction,ComponentPad*%
%ADD20C,2.500000*%
%TD*%
%TA.AperFunction,ViaPad*%
%ADD21C,0.600000*%
%TD*%
%TA.AperFunction,Conductor*%
%ADD22C,0.200000*%
%TD*%
G04 APERTURE END LIST*
D10*
%TO.P,H1,1,1*%
%TO.N,unconnected-(H1-Pad1)*%
X63248000Y-35291700D03*
D11*
%TO.N,unconnected-(H1-Pad1)_1*%
X63248000Y-35291700D03*
%TD*%
D12*
%TO.P,U2,*%
%TO.N,*%
X139558000Y-64581700D03*
X139558000Y-75581700D03*
D13*
%TO.P,U2,1,VCC*%
%TO.N,5V*%
X129558000Y-72581700D03*
D14*
%TO.P,U2,2,GND*%
%TO.N,GND*%
X129558000Y-67581700D03*
%TD*%
D10*
%TO.P,H4,1,1*%
%TO.N,unconnected-(H4-Pad1)_1*%
X63238000Y-85301700D03*
D11*
%TO.N,unconnected-(H4-Pad1)*%
X63238000Y-85301700D03*
%TD*%
D15*
%TO.P,U5,1,A1*%
%TO.N,unconnected-(U5-A1-Pad1)*%
X109508000Y-64301700D03*
D16*
%TO.P,U5,2,Y1*%
%TO.N,unconnected-(U5-Y1-Pad2)*%
X109508000Y-66841700D03*
%TO.P,U5,3,A2*%
%TO.N,unconnected-(U5-A2-Pad3)*%
X109508000Y-69381700D03*
%TO.P,U5,4,Y2*%
%TO.N,unconnected-(U5-Y2-Pad4)*%
X109508000Y-71921700D03*
%TO.P,U5,5,A3*%
%TO.N,SBUS_TX_INV*%
X109508000Y-74461700D03*
%TO.P,U5,6,Y3*%
%TO.N,SBUS_UART_TX*%
X109508000Y-77001700D03*
%TO.P,U5,7,GND*%
%TO.N,GND*%
X109508000Y-79541700D03*
%TO.P,U5,8,Y4*%
%TO.N,unconnected-(U5-Y4-Pad8)*%
X117128000Y-79541700D03*
%TO.P,U5,9,A4*%
%TO.N,unconnected-(U5-A4-Pad9)*%
X117128000Y-77001700D03*
%TO.P,U5,10,Y5*%
%TO.N,unconnected-(U5-Y5-Pad10)*%
X117128000Y-74461700D03*
%TO.P,U5,11,A5*%
%TO.N,unconnected-(U5-A5-Pad11)*%
X117128000Y-71921700D03*
%TO.P,U5,12,Y6*%
%TO.N,unconnected-(U5-Y6-Pad12)*%
X117128000Y-69381700D03*
%TO.P,U5,13,A6*%
%TO.N,unconnected-(U5-A6-Pad13)*%
X117128000Y-66841700D03*
%TO.P,U5,14,VCC*%
%TO.N,3v3*%
X117128000Y-64301700D03*
%TD*%
D17*
%TO.P,U3,1,PA02_A0_D0*%
%TO.N,unconnected-(U3-PA02_A0_D0-Pad1)*%
X106418000Y-29891700D03*
D18*
%TO.P,U3,2,PA4_A1_D1*%
%TO.N,ETH_SPI_CS_3v3*%
X106418000Y-32431700D03*
%TO.P,U3,3,PA10_A2_D2*%
%TO.N,unconnected-(U3-PA10_A2_D2-Pad3)*%
X106418000Y-34971700D03*
%TO.P,U3,4,PA11_A3_D3*%
%TO.N,unconnected-(U3-PA11_A3_D3-Pad4)*%
X106418000Y-37511700D03*
%TO.P,U3,5,PA8_A4_D4_SDA*%
%TO.N,unconnected-(U3-PA8_A4_D4_SDA-Pad5)*%
X106418000Y-40051700D03*
%TO.P,U3,6,PA9_A5_D5_SCL*%
%TO.N,unconnected-(U3-PA9_A5_D5_SCL-Pad6)*%
X106418000Y-42591700D03*
%TO.P,U3,7,PB08_A6_D6_TX*%
%TO.N,unconnected-(U3-PB08_A6_D6_TX-Pad7)*%
X106418000Y-45131700D03*
%TO.P,U3,8,PB09_A7_D7_RX*%
%TO.N,SBUS_UART_TX*%
X121658000Y-45131700D03*
%TO.P,U3,9,PA7_A8_D8_SCK*%
%TO.N,ETH_SPI_SCK_3v3*%
X121658000Y-42591700D03*
%TO.P,U3,10,PA5_A9_D9_MISO*%
%TO.N,ETH_SPI_MISO_3v3*%
X121658000Y-40051700D03*
%TO.P,U3,11,PA6_A10_D10_MOSI*%
%TO.N,ETH_SPI_MOSI_3v3*%
X121658000Y-37511700D03*
%TO.P,U3,12,3V3*%
%TO.N,unconnected-(U3-3V3-Pad12)*%
X121658000Y-34971700D03*
%TO.P,U3,13,GND*%
%TO.N,GND*%
X121658000Y-32431700D03*
%TO.P,U3,14,5V*%
%TO.N,5V*%
X121658000Y-29891700D03*
%TD*%
D19*
%TO.P,U4,1*%
%TO.N,SBUS_TX_INV*%
X123808000Y-57401700D03*
D20*
%TO.P,U4,2*%
%TO.N,GND*%
X123808000Y-53201700D03*
%TO.P,U4,3*%
%TO.N,unconnected-(U4-Pad3)*%
X129308000Y-57401700D03*
%TO.P,U4,4*%
%TO.N,unconnected-(U4-Pad4)*%
X129308000Y-53201700D03*
%TD*%
D10*
%TO.P,H3,1,1*%
%TO.N,unconnected-(H3-Pad1)*%
X133268000Y-85271700D03*
D11*
%TO.N,unconnected-(H3-Pad1)_2*%
X133268000Y-85271700D03*
%TD*%
D15*
%TO.P,U1,1,5V*%
%TO.N,unconnected-(U1-5V-Pad1)*%
X72738000Y-82801700D03*
D16*
%TO.P,U1,2,GND*%
%TO.N,GND*%
X75278000Y-82801700D03*
%TO.P,U1,3,RST*%
%TO.N,unconnected-(U1-RST-Pad3)*%
X77818000Y-82801700D03*
%TO.P,U1,4,INT*%
%TO.N,unconnected-(U1-INT-Pad4)*%
X80358000Y-82801700D03*
%TO.P,U1,5,NC*%
%TO.N,unconnected-(U1-NC-Pad5)*%
X82898000Y-82801700D03*
%TO.P,U1,6,SCLK*%
%TO.N,ETH_SPI_SCK_3v3*%
X82898000Y-80261700D03*
%TO.P,U1,7,SCS*%
%TO.N,ETH_SPI_CS_3v3*%
X80358000Y-80261700D03*
%TO.P,U1,8,MOSI*%
%TO.N,ETH_SPI_MOSI_3v3*%
X77818000Y-80261700D03*
%TO.P,U1,9,MISO*%
%TO.N,ETH_SPI_MISO_3v3*%
X75278000Y-80261700D03*
%TO.P,U1,10,3.3v*%
%TO.N,3v3*%
X72738000Y-80261700D03*
%TD*%
D10*
%TO.P,H2,1,1*%
%TO.N,unconnected-(H2-Pad1)_1*%
X133258000Y-35291700D03*
D11*
%TO.N,unconnected-(H2-Pad1)_2*%
X133258000Y-35291700D03*
%TD*%
D21*
%TO.N,ETH_SPI_CS_3v3*%
X104080000Y-76420700D03*
%TO.N,ETH_SPI_SCK_3v3*%
X86614000Y-52231700D03*
%TO.N,ETH_SPI_MOSI_3v3*%
X79178000Y-49217400D03*
%TO.N,ETH_SPI_MISO_3v3*%
X81228000Y-48321700D03*
%TO.N,SBUS_TX_INV*%
X115744000Y-73191700D03*
%TD*%
D22*
%TO.N,ETH_SPI_CS_3v3*%
X84199000Y-76420700D02*
X80358000Y-80261700D01*
X104080000Y-76420700D02*
X84199000Y-76420700D01*
%TO.N,ETH_SPI_SCK_3v3*%
X112018000Y-52231700D02*
X121658000Y-42591700D01*
X86614000Y-52231700D02*
X112018000Y-52231700D01*
%TO.N,GND*%
X75278000Y-82801700D02*
X76648000Y-84171700D01*
X104878000Y-84171700D02*
X109508000Y-79541700D01*
X76648000Y-84171700D02*
X104878000Y-84171700D01*
%TO.N,ETH_SPI_MOSI_3v3*%
X79178000Y-47781700D02*
X79858000Y-47101700D01*
X79178000Y-49217400D02*
X79178000Y-47781700D01*
X92906000Y-48061700D02*
X111108000Y-48061700D01*
X111108000Y-48061700D02*
X121658000Y-37511700D01*
X91946000Y-47101700D02*
X92906000Y-48061700D01*
X79858000Y-47101700D02*
X91946000Y-47101700D01*
%TO.N,ETH_SPI_MISO_3v3*%
X81228000Y-48321700D02*
X83208000Y-50301700D01*
X111408000Y-50301700D02*
X121658000Y-40051700D01*
X83208000Y-50301700D02*
X111408000Y-50301700D01*
%TO.N,3v3*%
X115826000Y-63000000D02*
X117128000Y-64301700D01*
X90000000Y-63000000D02*
X115826000Y-63000000D01*
X72738000Y-80261700D02*
X90000000Y-63000000D01*
%TO.N,SBUS_TX_INV*%
X113684000Y-75251700D02*
X110298000Y-75251700D01*
X115744000Y-73191700D02*
X115588000Y-73348100D01*
X115744000Y-73191700D02*
X113684000Y-75251700D01*
X115588000Y-73348100D02*
X115744000Y-73191700D01*
X110298000Y-75251700D02*
X109508000Y-74461700D01*
%TD*%
%TA.AperFunction,Conductor*%
%TO.N,GND*%
G36*
X76634420Y-81188533D02*
G01*
X76648315Y-81204570D01*
X76673483Y-81239210D01*
X76840490Y-81406217D01*
X76875127Y-81431383D01*
X76917792Y-81486713D01*
X76923771Y-81556326D01*
X76891165Y-81618121D01*
X76875130Y-81632015D01*
X76857365Y-81644922D01*
X76840488Y-81657184D01*
X76673482Y-81824190D01*
X76630451Y-81883417D01*
X76575120Y-81926082D01*
X76520405Y-81934148D01*
X76500658Y-81932593D01*
X75760962Y-82672290D01*
X75743925Y-82608707D01*
X75678099Y-82494693D01*
X75585007Y-82401601D01*
X75470993Y-82335775D01*
X75407408Y-82318737D01*
X76147105Y-81579040D01*
X76145551Y-81559294D01*
X76159915Y-81490916D01*
X76196284Y-81449247D01*
X76255510Y-81406217D01*
X76422517Y-81239210D01*
X76447682Y-81204572D01*
X76503011Y-81161907D01*
X76572625Y-81155928D01*
X76634420Y-81188533D01*
G37*
%TD.AperFunction*%
%TA.AperFunction,Conductor*%
G36*
X76544110Y-25821751D02*
G01*
X76611135Y-25841484D01*
X76656852Y-25894321D01*
X76668021Y-25945647D01*
X76684255Y-45322350D01*
X76684255Y-45387594D01*
X76684282Y-45387808D01*
X76684307Y-45387995D01*
X76695073Y-45428039D01*
X76701422Y-45451657D01*
X76718363Y-45514879D01*
X76718469Y-45515063D01*
X76718525Y-45515270D01*
X76718545Y-45515305D01*
X76718546Y-45515307D01*
X76751302Y-45571932D01*
X76751287Y-45571940D01*
X76751354Y-45572021D01*
X76784255Y-45629008D01*
X76784313Y-45629083D01*
X76784509Y-45629338D01*
X76830547Y-45675300D01*
X76830544Y-45675302D01*
X76830621Y-45675373D01*
X76875297Y-45720050D01*
X76875299Y-45720051D01*
X76877441Y-45722193D01*
X76877627Y-45722300D01*
X76877777Y-45722450D01*
X76934537Y-45755157D01*
X76935154Y-45755513D01*
X76991565Y-45788083D01*
X76991566Y-45788083D01*
X76991569Y-45788085D01*
X76991571Y-45788085D01*
X76991874Y-45788211D01*
X76991878Y-45788213D01*
X76991960Y-45788247D01*
X77055600Y-45805242D01*
X77118863Y-45822193D01*
X77119076Y-45822193D01*
X77119282Y-45822248D01*
X77119287Y-45822247D01*
X77119288Y-45822248D01*
X77185174Y-45822193D01*
X92259076Y-45822193D01*
X92259282Y-45822248D01*
X92325174Y-45822193D01*
X92390647Y-45822193D01*
X92390649Y-45822193D01*
X92391059Y-45822138D01*
X92391066Y-45822138D01*
X92454719Y-45805025D01*
X92517941Y-45788085D01*
X92518125Y-45787978D01*
X92518332Y-45787923D01*
X92574993Y-45755145D01*
X92632069Y-45722193D01*
X92632221Y-45722040D01*
X92632404Y-45721935D01*
X92678361Y-45675900D01*
X92725255Y-45629007D01*
X92725263Y-45628992D01*
X92725349Y-45628882D01*
X92725504Y-45628678D01*
X92725512Y-45628671D01*
X92758219Y-45571910D01*
X92791147Y-45514879D01*
X92791202Y-45514673D01*
X92791309Y-45514488D01*
X92808304Y-45450847D01*
X92825255Y-45387585D01*
X92825255Y-45387569D01*
X92825307Y-45387176D01*
X92825310Y-45387166D01*
X92825255Y-45321512D01*
X92825255Y-45255801D01*
X92825199Y-45255594D01*
X92815034Y-33120572D01*
X94737500Y-33120572D01*
X94737500Y-33382827D01*
X94755528Y-33519752D01*
X94771730Y-33642816D01*
X94839602Y-33896118D01*
X94839605Y-33896128D01*
X94939953Y-34138390D01*
X94939958Y-34138400D01*
X95071075Y-34365503D01*
X95230718Y-34573551D01*
X95230726Y-34573560D01*
X95416140Y-34758974D01*
X95416148Y-34758981D01*
X95624196Y-34918624D01*
X95851299Y-35049741D01*
X95851309Y-35049746D01*
X96093571Y-35150094D01*
X96093581Y-35150098D01*
X96346884Y-35217970D01*
X96606880Y-35252200D01*
X96606887Y-35252200D01*
X96869113Y-35252200D01*
X96869120Y-35252200D01*
X97129116Y-35217970D01*
X97382419Y-35150098D01*
X97572664Y-35071296D01*
X97624690Y-35049746D01*
X97624691Y-35049745D01*
X97624697Y-35049743D01*
X97851803Y-34918624D01*
X98059851Y-34758982D01*
X98059855Y-34758977D01*
X98059860Y-34758974D01*
X98245274Y-34573560D01*
X98245277Y-34573555D01*
X98245282Y-34573551D01*
X98404924Y-34365503D01*
X98536043Y-34138397D01*
X98636398Y-33896119D01*
X98704270Y-33642816D01*
X98738500Y-33382820D01*
X98738500Y-33120580D01*
X98704270Y-32860584D01*
X98636398Y-32607281D01*
X98636394Y-32607271D01*
X98536046Y-32365009D01*
X98536041Y-32364999D01*
X98404924Y-32137896D01*
X98245281Y-31929848D01*
X98245274Y-31929840D01*
X98059860Y-31744426D01*
X98059851Y-31744418D01*
X97851803Y-31584775D01*
X97624700Y-31453658D01*
X97624690Y-31453653D01*
X97382428Y-31353305D01*
X97382421Y-31353303D01*
X97382419Y-31353302D01*
X97129116Y-31285430D01*
X97071339Y-31277823D01*
X96869127Y-31251200D01*
X96869120Y-31251200D01*
X96606880Y-31251200D01*
X96606872Y-31251200D01*
X96375772Y-31281626D01*
X96346884Y-31285430D01*
X96194776Y-31326187D01*
X96093581Y-31353302D01*
X96093571Y-31353305D01*
X95851309Y-31453653D01*
X95851299Y-31453658D01*
X95624196Y-31584775D01*
X95416148Y-31744418D01*
X95230718Y-31929848D01*
X95071075Y-32137896D01*
X94939958Y-32364999D01*
X94939953Y-32365009D01*
X94839605Y-32607271D01*
X94839602Y-32607281D01*
X94771730Y-32860584D01*
X94767926Y-32889472D01*
X94737500Y-33120572D01*
X92815034Y-33120572D01*
X92811648Y-29078835D01*
X105152500Y-29078835D01*
X105152500Y-30704570D01*
X105152501Y-30704576D01*
X105158908Y-30764183D01*
X105209202Y-30899028D01*
X105209206Y-30899035D01*
X105295452Y-31014244D01*
X105295455Y-31014247D01*
X105410664Y-31100493D01*
X105410671Y-31100497D01*
X105545517Y-31150791D01*
X105545516Y-31150791D01*
X105552444Y-31151535D01*
X105605127Y-31157200D01*
X105637568Y-31157199D01*
X105704605Y-31176882D01*
X105750361Y-31229684D01*
X105760306Y-31298843D01*
X105731283Y-31362399D01*
X105710455Y-31381516D01*
X105593582Y-31466430D01*
X105452733Y-31607279D01*
X105452733Y-31607280D01*
X105452731Y-31607282D01*
X105402447Y-31676490D01*
X105335647Y-31768433D01*
X105245213Y-31945919D01*
X105183661Y-32135356D01*
X105183661Y-32135359D01*
X105152500Y-32332103D01*
X105152500Y-32531296D01*
X105183661Y-32728040D01*
X105183661Y-32728043D01*
X105245213Y-32917480D01*
X105267673Y-32961560D01*
X105335647Y-33094966D01*
X105452731Y-33256118D01*
X105593582Y-33396969D01*
X105754734Y-33514053D01*
X105780937Y-33527404D01*
X105906172Y-33591215D01*
X105956968Y-33639190D01*
X105973763Y-33707011D01*
X105951225Y-33773146D01*
X105906172Y-33812185D01*
X105754733Y-33889347D01*
X105662790Y-33956147D01*
X105593582Y-34006431D01*
X105593580Y-34006433D01*
X105593579Y-34006433D01*
X105452733Y-34147279D01*
X105452733Y-34147280D01*
X105452731Y-34147282D01*
X105408499Y-34208162D01*
X105335647Y-34308433D01*
X105245213Y-34485919D01*
X105183661Y-34675356D01*
X105183661Y-34675359D01*
X105152500Y-34872103D01*
X105152500Y-35071296D01*
X105183661Y-35268040D01*
X105183661Y-35268043D01*
X105245213Y-35457480D01*
X105335647Y-35634966D01*
X105452731Y-35796118D01*
X105593582Y-35936969D01*
X105754734Y-36054053D01*
X105824453Y-36089577D01*
X105906172Y-36131215D01*
X105956968Y-36179190D01*
X105973763Y-36247011D01*
X105951225Y-36313146D01*
X105906172Y-36352185D01*
X105754733Y-36429347D01*
X105662790Y-36496147D01*
X105593582Y-36546431D01*
X105593580Y-36546433D01*
X105593579Y-36546433D01*
X105452733Y-36687279D01*
X105452733Y-36687280D01*
X105452731Y-36687282D01*
X105402447Y-36756490D01*
X105335647Y-36848433D01*
X105245213Y-37025919D01*
X105183661Y-37215356D01*
X105183661Y-37215359D01*
X105152500Y-37412103D01*
X105152500Y-37611296D01*
X105183661Y-37808040D01*
X105183661Y-37808043D01*
X105245213Y-37997480D01*
X105311794Y-38128152D01*
X105335647Y-38174966D01*
X105452731Y-38336118D01*
X105593582Y-38476969D01*
X105754734Y-38594053D01*
X105824453Y-38629577D01*
X105906172Y-38671215D01*
X105956968Y-38719190D01*
X105973763Y-38787011D01*
X105951225Y-38853146D01*
X105906172Y-38892185D01*
X105754733Y-38969347D01*
X105662790Y-39036147D01*
X105593582Y-39086431D01*
X105593580Y-39086433D01*
X105593579Y-39086433D01*
X105452733Y-39227279D01*
X105452733Y-39227280D01*
X105452731Y-39227282D01*
X105402447Y-39296490D01*
X105335647Y-39388433D01*
X105245213Y-39565919D01*
X105183661Y-39755356D01*
X105183661Y-39755359D01*
X105152500Y-39952103D01*
X105152500Y-40151296D01*
X105183661Y-40348040D01*
X105183661Y-40348043D01*
X105245213Y-40537480D01*
X105335647Y-40714966D01*
X105452731Y-40876118D01*
X105593582Y-41016969D01*
X105754734Y-41134053D01*
X105824453Y-41169577D01*
X105906172Y-41211215D01*
X105956968Y-41259190D01*
X105973763Y-41327011D01*
X105951225Y-41393146D01*
X105906172Y-41432185D01*
X105754733Y-41509347D01*
X105662790Y-41576147D01*
X105593582Y-41626431D01*
X105593580Y-41626433D01*
X105593579Y-41626433D01*
X105452733Y-41767279D01*
X105452733Y-41767280D01*
X105452731Y-41767282D01*
X105402447Y-41836490D01*
X105335647Y-41928433D01*
X105245213Y-42105919D01*
X105183661Y-42295356D01*
X105183661Y-42295359D01*
X105152500Y-42492103D01*
X105152500Y-42691296D01*
X105183661Y-42888040D01*
X105183661Y-42888043D01*
X105245213Y-43077480D01*
X105245215Y-43077483D01*
X105335647Y-43254966D01*
X105452731Y-43416118D01*
X105593582Y-43556969D01*
X105754734Y-43674053D01*
X105824453Y-43709577D01*
X105906172Y-43751215D01*
X105956968Y-43799190D01*
X105973763Y-43867011D01*
X105951225Y-43933146D01*
X105906172Y-43972185D01*
X105754733Y-44049347D01*
X105662790Y-44116147D01*
X105593582Y-44166431D01*
X105593580Y-44166433D01*
X105593579Y-44166433D01*
X105452733Y-44307279D01*
X105452733Y-44307280D01*
X105452731Y-44307282D01*
X105402447Y-44376490D01*
X105335647Y-44468433D01*
X105245213Y-44645919D01*
X105183661Y-44835356D01*
X105183661Y-44835359D01*
X105152500Y-45032103D01*
X105152500Y-45231296D01*
X105183661Y-45428040D01*
X105183661Y-45428043D01*
X105245213Y-45617480D01*
X105335647Y-45794966D01*
X105452731Y-45956118D01*
X105593582Y-46096969D01*
X105754734Y-46214053D01*
X105932217Y-46304485D01*
X105932219Y-46304486D01*
X106121657Y-46366038D01*
X106121658Y-46366038D01*
X106121661Y-46366039D01*
X106318403Y-46397200D01*
X106318404Y-46397200D01*
X106517596Y-46397200D01*
X106517597Y-46397200D01*
X106714339Y-46366039D01*
X106714342Y-46366038D01*
X106714343Y-46366038D01*
X106903780Y-46304486D01*
X106903780Y-46304485D01*
X106903783Y-46304485D01*
X107081266Y-46214053D01*
X107242418Y-46096969D01*
X107383269Y-45956118D01*
X107500353Y-45794966D01*
X107590785Y-45617483D01*
X107605340Y-45572686D01*
X107652338Y-45428043D01*
X107652338Y-45428042D01*
X107652339Y-45428039D01*
X107683500Y-45231297D01*
X107683500Y-45032103D01*
X107652339Y-44835361D01*
X107652338Y-44835357D01*
X107652338Y-44835356D01*
X107590786Y-44645919D01*
X107500352Y-44468433D01*
X107383269Y-44307282D01*
X107242418Y-44166431D01*
X107081266Y-44049347D01*
X106929827Y-43972185D01*
X106879031Y-43924210D01*
X106862236Y-43856389D01*
X106884773Y-43790254D01*
X106929827Y-43751215D01*
X106939116Y-43746481D01*
X107081266Y-43674053D01*
X107242418Y-43556969D01*
X107383269Y-43416118D01*
X107500353Y-43254966D01*
X107590785Y-43077483D01*
X107652339Y-42888039D01*
X107683500Y-42691297D01*
X107683500Y-42492103D01*
X107652339Y-42295361D01*
X107652338Y-42295357D01*
X107652338Y-42295356D01*
X107590786Y-42105919D01*
X107500352Y-41928433D01*
X107383269Y-41767282D01*
X107242418Y-41626431D01*
X107081266Y-41509347D01*
X106929827Y-41432185D01*
X106879031Y-41384210D01*
X106862236Y-41316389D01*
X106884773Y-41250254D01*
X106929827Y-41211215D01*
X106939116Y-41206481D01*
X107081266Y-41134053D01*
X107242418Y-41016969D01*
X107383269Y-40876118D01*
X107500353Y-40714966D01*
X107590785Y-40537483D01*
X107651018Y-40352104D01*
X107652338Y-40348043D01*
X107652338Y-40348042D01*
X107652339Y-40348039D01*
X107683500Y-40151297D01*
X107683500Y-39952103D01*
X107652339Y-39755361D01*
X107652338Y-39755357D01*
X107652338Y-39755356D01*
X107590786Y-39565919D01*
X107500352Y-39388433D01*
X107383269Y-39227282D01*
X107242418Y-39086431D01*
X107081266Y-38969347D01*
X106929827Y-38892185D01*
X106879031Y-38844210D01*
X106862236Y-38776389D01*
X106884773Y-38710254D01*
X106929827Y-38671215D01*
X106939116Y-38666481D01*
X107081266Y-38594053D01*
X107242418Y-38476969D01*
X107383269Y-38336118D01*
X107500353Y-38174966D01*
X107590785Y-37997483D01*
X107651018Y-37812104D01*
X107652338Y-37808043D01*
X107652338Y-37808042D01*
X107652339Y-37808039D01*
X107683500Y-37611297D01*
X107683500Y-37412103D01*
X107652339Y-37215361D01*
X107652338Y-37215357D01*
X107652338Y-37215356D01*
X107590786Y-37025919D01*
X107500352Y-36848433D01*
X107383269Y-36687282D01*
X107242418Y-36546431D01*
X107081266Y-36429347D01*
X106929827Y-36352185D01*
X106879031Y-36304210D01*
X106862236Y-36236389D01*
X106884773Y-36170254D01*
X106929827Y-36131215D01*
X106939116Y-36126481D01*
X107081266Y-36054053D01*
X107242418Y-35936969D01*
X107383269Y-35796118D01*
X107500353Y-35634966D01*
X107590785Y-35457483D01*
X107590786Y-35457480D01*
X107652338Y-35268043D01*
X107652338Y-35268042D01*
X107652339Y-35268039D01*
X107683500Y-35071297D01*
X107683500Y-34872103D01*
X107652339Y-34675361D01*
X107652338Y-34675357D01*
X107652338Y-34675356D01*
X107590786Y-34485919D01*
X107500352Y-34308433D01*
X107383269Y-34147282D01*
X107242418Y-34006431D01*
X107081266Y-33889347D01*
X106929827Y-33812185D01*
X106879031Y-33764210D01*
X106862236Y-33696389D01*
X106884773Y-33630254D01*
X106929827Y-33591215D01*
X106939116Y-33586481D01*
X107081266Y-33514053D01*
X107242418Y-33396969D01*
X107383269Y-33256118D01*
X107500353Y-33094966D01*
X107590785Y-32917483D01*
X107652339Y-32728039D01*
X107683500Y-32531297D01*
X107683500Y-32332103D01*
X107652339Y-32135361D01*
X107652338Y-32135357D01*
X107652338Y-32135356D01*
X107590786Y-31945919D01*
X107578446Y-31921700D01*
X107500353Y-31768434D01*
X107383269Y-31607282D01*
X107242418Y-31466431D01*
X107125543Y-31381516D01*
X107082878Y-31326187D01*
X107076899Y-31256574D01*
X107109505Y-31194779D01*
X107170343Y-31160422D01*
X107198428Y-31157199D01*
X107230872Y-31157199D01*
X107290483Y-31150791D01*
X107425331Y-31100496D01*
X107540546Y-31014246D01*
X107626796Y-30899031D01*
X107677091Y-30764183D01*
X107683500Y-30704573D01*
X107683499Y-29078828D01*
X107677091Y-29019217D01*
X107626796Y-28884369D01*
X107626795Y-28884368D01*
X107626793Y-28884364D01*
X107540547Y-28769155D01*
X107540544Y-28769152D01*
X107425335Y-28682906D01*
X107425328Y-28682902D01*
X107290482Y-28632608D01*
X107290483Y-28632608D01*
X107230883Y-28626201D01*
X107230881Y-28626200D01*
X107230873Y-28626200D01*
X107230864Y-28626200D01*
X105605129Y-28626200D01*
X105605123Y-28626201D01*
X105545516Y-28632608D01*
X105410671Y-28682902D01*
X105410664Y-28682906D01*
X105295455Y-28769152D01*
X105295452Y-28769155D01*
X105209206Y-28884364D01*
X105209202Y-28884371D01*
X105158908Y-29019217D01*
X105153741Y-29067280D01*
X105152501Y-29078823D01*
X105152500Y-29078835D01*
X92811648Y-29078835D01*
X92809024Y-25946607D01*
X92828652Y-25879552D01*
X92881418Y-25833753D01*
X92933082Y-25822504D01*
X133191987Y-25842167D01*
X133192108Y-25842200D01*
X133256111Y-25842200D01*
X133256114Y-25842201D01*
X133259941Y-25842261D01*
X133846830Y-25860705D01*
X133854572Y-25861192D01*
X134437214Y-25916267D01*
X134444939Y-25917243D01*
X135022945Y-26008790D01*
X135030559Y-26010242D01*
X135601727Y-26137913D01*
X135609250Y-26139846D01*
X136084665Y-26277967D01*
X136171218Y-26303113D01*
X136178626Y-26305520D01*
X136729240Y-26503753D01*
X136736474Y-26506616D01*
X137273567Y-26739037D01*
X137280616Y-26742354D01*
X137802046Y-27008036D01*
X137808872Y-27011789D01*
X138312584Y-27309684D01*
X138319161Y-27313858D01*
X138803179Y-27642796D01*
X138809481Y-27647375D01*
X139271873Y-28006043D01*
X139277876Y-28011008D01*
X139716867Y-28398031D01*
X139722545Y-28403364D01*
X140136335Y-28817154D01*
X140141668Y-28822832D01*
X140528691Y-29261823D01*
X140533656Y-29267826D01*
X140892324Y-29730218D01*
X140896903Y-29736520D01*
X141225841Y-30220538D01*
X141230015Y-30227115D01*
X141527910Y-30730827D01*
X141531663Y-30737653D01*
X141797345Y-31259083D01*
X141800662Y-31266132D01*
X142033079Y-31803216D01*
X142035946Y-31810459D01*
X142234179Y-32361073D01*
X142236586Y-32368481D01*
X142399850Y-32930438D01*
X142401788Y-32937983D01*
X142529453Y-33509121D01*
X142530912Y-33516773D01*
X142622455Y-34094758D01*
X142623432Y-34102487D01*
X142678506Y-34685111D01*
X142678995Y-34692885D01*
X142697439Y-35279759D01*
X142697500Y-35283453D01*
X142697500Y-35347592D01*
X142697604Y-35347981D01*
X142697618Y-35356416D01*
X142697618Y-35356419D01*
X142777495Y-85299672D01*
X142777434Y-85303765D01*
X142758798Y-85896793D01*
X142758309Y-85904568D01*
X142702643Y-86493446D01*
X142701666Y-86501174D01*
X142609140Y-87085364D01*
X142607681Y-87093016D01*
X142478646Y-87670285D01*
X142476708Y-87677830D01*
X142311692Y-88245820D01*
X142309285Y-88253229D01*
X142108924Y-88809753D01*
X142106057Y-88816995D01*
X141871145Y-89359845D01*
X141867828Y-89366894D01*
X141599294Y-89893921D01*
X141595541Y-89900747D01*
X141294448Y-90409867D01*
X141290274Y-90416444D01*
X140957811Y-90905649D01*
X140953232Y-90911951D01*
X140590701Y-91379323D01*
X140585736Y-91385326D01*
X140194565Y-91829022D01*
X140189232Y-91834700D01*
X139771000Y-92252932D01*
X139765322Y-92258265D01*
X139321626Y-92649436D01*
X139315623Y-92654401D01*
X138848251Y-93016932D01*
X138841949Y-93021511D01*
X138352744Y-93353974D01*
X138346167Y-93358148D01*
X137837047Y-93659241D01*
X137830221Y-93662994D01*
X137303194Y-93931528D01*
X137296145Y-93934845D01*
X136753295Y-94169757D01*
X136746053Y-94172624D01*
X136189529Y-94372985D01*
X136182120Y-94375392D01*
X135614130Y-94540408D01*
X135606585Y-94542346D01*
X135029316Y-94671381D01*
X135021664Y-94672840D01*
X134437474Y-94765366D01*
X134429746Y-94766343D01*
X133840868Y-94822009D01*
X133833093Y-94822498D01*
X133239971Y-94841138D01*
X133236005Y-94841199D01*
X63312269Y-94801241D01*
X63312269Y-94801240D01*
X63304024Y-94801235D01*
X63303892Y-94801200D01*
X63239899Y-94801200D01*
X63239895Y-94801198D01*
X63236074Y-94801139D01*
X62645417Y-94782577D01*
X62637643Y-94782088D01*
X62051267Y-94726659D01*
X62043538Y-94725682D01*
X61461830Y-94633549D01*
X61454178Y-94632090D01*
X60879361Y-94503603D01*
X60871816Y-94501665D01*
X60306234Y-94337348D01*
X60298840Y-94334946D01*
X59744676Y-94135435D01*
X59737434Y-94132568D01*
X59196886Y-93898652D01*
X59189837Y-93895335D01*
X58665048Y-93627941D01*
X58658222Y-93624188D01*
X58151265Y-93324375D01*
X58144688Y-93320201D01*
X57657553Y-92989144D01*
X57651251Y-92984565D01*
X57185881Y-92623587D01*
X57179878Y-92618622D01*
X56738059Y-92229106D01*
X56732381Y-92223773D01*
X56315926Y-91807318D01*
X56310593Y-91801640D01*
X55921077Y-91359821D01*
X55916112Y-91353818D01*
X55555134Y-90888448D01*
X55550555Y-90882146D01*
X55219498Y-90395011D01*
X55215324Y-90388434D01*
X54915511Y-89881477D01*
X54911758Y-89874651D01*
X54644364Y-89349862D01*
X54641047Y-89342813D01*
X54584492Y-89212121D01*
X54407129Y-88802261D01*
X54404270Y-88795038D01*
X54204746Y-88240839D01*
X54202358Y-88233489D01*
X54038031Y-87667872D01*
X54036096Y-87660338D01*
X53907605Y-87085502D01*
X53906153Y-87077888D01*
X53814016Y-86496159D01*
X53813040Y-86488432D01*
X53807913Y-86434194D01*
X53757610Y-85902040D01*
X53757123Y-85894298D01*
X53738560Y-85303629D01*
X53738500Y-85299733D01*
X53738546Y-85073792D01*
X57437500Y-85073792D01*
X57437500Y-85529607D01*
X57466508Y-85898179D01*
X57473262Y-85984002D01*
X57544566Y-86434194D01*
X57650971Y-86877405D01*
X57782079Y-87280912D01*
X57791823Y-87310900D01*
X57791827Y-87310912D01*
X57913281Y-87604126D01*
X57966252Y-87732009D01*
X58173182Y-88138134D01*
X58173189Y-88138147D01*
X58173192Y-88138152D01*
X58411333Y-88526761D01*
X58411338Y-88526768D01*
X58411340Y-88526771D01*
X58679255Y-88895525D01*
X58975276Y-89242121D01*
X59297579Y-89564424D01*
X59644175Y-89860445D01*
X60012929Y-90128360D01*
X60012933Y-90128362D01*
X60012938Y-90128366D01*
X60401547Y-90366507D01*
X60401552Y-90366510D01*
X60401557Y-90366512D01*
X60401566Y-90366518D01*
X60807691Y-90573448D01*
X61228799Y-90747877D01*
X61662295Y-90888729D01*
X62105506Y-90995134D01*
X62555698Y-91066438D01*
X63010098Y-91102200D01*
X63010106Y-91102200D01*
X63465894Y-91102200D01*
X63465902Y-91102200D01*
X63920302Y-91066438D01*
X64370494Y-90995134D01*
X64813705Y-90888729D01*
X65247201Y-90747877D01*
X65668309Y-90573448D01*
X66074434Y-90366518D01*
X66463071Y-90128360D01*
X66831825Y-89860445D01*
X67178421Y-89564424D01*
X67500724Y-89242121D01*
X67796745Y-88895525D01*
X68064660Y-88526771D01*
X68302818Y-88138134D01*
X68509748Y-87732009D01*
X68684177Y-87310901D01*
X68825029Y-86877405D01*
X68931434Y-86434194D01*
X69002738Y-85984002D01*
X69038500Y-85529602D01*
X69038500Y-85073798D01*
X69036138Y-85043792D01*
X127467500Y-85043792D01*
X127467500Y-85499607D01*
X127503262Y-85954002D01*
X127503262Y-85954003D01*
X127508014Y-85984003D01*
X127574566Y-86404194D01*
X127680971Y-86847405D01*
X127821823Y-87280900D01*
X127821827Y-87280912D01*
X127915295Y-87506562D01*
X127996252Y-87702009D01*
X128011538Y-87732009D01*
X128203189Y-88108147D01*
X128203192Y-88108152D01*
X128441333Y-88496761D01*
X128441341Y-88496772D01*
X128709249Y-88865517D01*
X128709260Y-88865531D01*
X129005270Y-89212114D01*
X129005276Y-89212121D01*
X129327579Y-89534424D01*
X129674175Y-89830445D01*
X130042929Y-90098360D01*
X130042933Y-90098362D01*
X130042938Y-90098366D01*
X130431547Y-90336507D01*
X130431552Y-90336510D01*
X130431557Y-90336512D01*
X130431566Y-90336518D01*
X130837691Y-90543448D01*
X131258799Y-90717877D01*
X131692295Y-90858729D01*
X132135506Y-90965134D01*
X132585698Y-91036438D01*
X133040098Y-91072200D01*
X133040106Y-91072200D01*
X133495894Y-91072200D01*
X133495902Y-91072200D01*
X133950302Y-91036438D01*
X134400494Y-90965134D01*
X134843705Y-90858729D01*
X135277201Y-90717877D01*
X135698309Y-90543448D01*
X136104434Y-90336518D01*
X136493071Y-90098360D01*
X136861825Y-89830445D01*
X137208421Y-89534424D01*
X137530724Y-89212121D01*
X137826745Y-88865525D01*
X138094660Y-88496771D01*
X138332818Y-88108134D01*
X138539748Y-87702009D01*
X138714177Y-87280901D01*
X138855029Y-86847405D01*
X138961434Y-86404194D01*
X139032738Y-85954002D01*
X139068500Y-85499602D01*
X139068500Y-85043798D01*
X139032738Y-84589398D01*
X138961434Y-84139206D01*
X138855029Y-83695995D01*
X138714177Y-83262499D01*
X138539748Y-82841391D01*
X138332818Y-82435266D01*
X138332812Y-82435257D01*
X138332810Y-82435252D01*
X138332807Y-82435247D01*
X138094666Y-82046638D01*
X138094662Y-82046633D01*
X138094660Y-82046629D01*
X137826745Y-81677875D01*
X137530724Y-81331279D01*
X137208421Y-81008976D01*
X137203491Y-81004765D01*
X136861831Y-80712960D01*
X136861817Y-80712949D01*
X136534364Y-80475041D01*
X136493071Y-80445040D01*
X136493068Y-80445038D01*
X136493061Y-80445033D01*
X136104452Y-80206892D01*
X136104447Y-80206889D01*
X136104437Y-80206884D01*
X136104434Y-80206882D01*
X135698309Y-79999952D01*
X135481948Y-79910332D01*
X135277212Y-79825527D01*
X135277205Y-79825524D01*
X135277201Y-79825523D01*
X134843705Y-79684671D01*
X134400494Y-79578266D01*
X133950302Y-79506962D01*
X133495907Y-79471200D01*
X133495902Y-79471200D01*
X133040098Y-79471200D01*
X133040092Y-79471200D01*
X132585697Y-79506962D01*
X132585696Y-79506962D01*
X132135511Y-79578265D01*
X132135508Y-79578265D01*
X132135506Y-79578266D01*
X131976784Y-79616371D01*
X131692306Y-79684668D01*
X131692301Y-79684669D01*
X131692295Y-79684671D01*
X131258799Y-79825523D01*
X131258787Y-79825527D01*
X130837693Y-79999951D01*
X130431552Y-80206889D01*
X130431547Y-80206892D01*
X130042938Y-80445033D01*
X130042927Y-80445041D01*
X129674182Y-80712949D01*
X129674168Y-80712960D01*
X129327585Y-81008970D01*
X129327571Y-81008983D01*
X129005283Y-81331271D01*
X129005270Y-81331285D01*
X128709260Y-81677868D01*
X128709249Y-81677882D01*
X128441341Y-82046627D01*
X128441333Y-82046638D01*
X128203192Y-82435247D01*
X128203189Y-82435252D01*
X127996251Y-82841393D01*
X127821827Y-83262487D01*
X127821823Y-83262499D01*
X127680971Y-83695995D01*
X127680969Y-83696001D01*
X127680968Y-83696006D01*
X127574565Y-84139211D01*
X127503262Y-84589396D01*
X127503262Y-84589397D01*
X127467500Y-85043792D01*
X69036138Y-85043792D01*
X69034096Y-85017842D01*
X69002738Y-84619398D01*
X68931434Y-84169206D01*
X68825029Y-83725995D01*
X68684177Y-83292499D01*
X68509748Y-82871391D01*
X68302818Y-82465266D01*
X68302812Y-82465257D01*
X68302810Y-82465252D01*
X68302807Y-82465247D01*
X68064666Y-82076638D01*
X68064662Y-82076633D01*
X68064660Y-82076629D01*
X67796745Y-81707875D01*
X67500724Y-81361279D01*
X67178421Y-81038976D01*
X67143296Y-81008976D01*
X66831831Y-80742960D01*
X66831817Y-80742949D01*
X66653051Y-80613068D01*
X66463071Y-80475040D01*
X66463068Y-80475038D01*
X66463061Y-80475033D01*
X66086806Y-80244463D01*
X66086805Y-80244463D01*
X66074443Y-80236887D01*
X66074438Y-80236884D01*
X66074434Y-80236882D01*
X65891361Y-80143602D01*
X71237500Y-80143602D01*
X71237500Y-80379797D01*
X71274446Y-80613068D01*
X71347433Y-80837696D01*
X71454657Y-81048133D01*
X71544549Y-81171858D01*
X71568029Y-81237665D01*
X71552204Y-81305719D01*
X71503255Y-81353289D01*
X71503454Y-81353653D01*
X71502146Y-81354367D01*
X71502098Y-81354414D01*
X71501885Y-81354509D01*
X71495664Y-81357906D01*
X71380455Y-81444152D01*
X71380452Y-81444155D01*
X71294206Y-81559364D01*
X71294202Y-81559371D01*
X71243908Y-81694217D01*
X71237501Y-81753816D01*
X71237500Y-81753835D01*
X71237500Y-83849570D01*
X71237501Y-83849576D01*
X71243908Y-83909183D01*
X71294202Y-84044028D01*
X71294206Y-84044035D01*
X71380452Y-84159244D01*
X71380455Y-84159247D01*
X71495664Y-84245493D01*
X71495671Y-84245497D01*
X71630517Y-84295791D01*
X71630516Y-84295791D01*
X71637444Y-84296535D01*
X71690127Y-84302200D01*
X73785872Y-84302199D01*
X73845483Y-84295791D01*
X73980331Y-84245496D01*
X74095546Y-84159246D01*
X74181796Y-84044031D01*
X74181797Y-84044026D01*
X74186047Y-84036246D01*
X74189200Y-84037967D01*
X74220814Y-83995725D01*
X74286275Y-83971299D01*
X74354550Y-83986142D01*
X74368023Y-83994664D01*
X74491828Y-84084614D01*
X74702197Y-84191802D01*
X74926752Y-84264765D01*
X74926751Y-84264765D01*
X75159948Y-84301700D01*
X75396052Y-84301700D01*
X75629247Y-84264765D01*
X75853802Y-84191802D01*
X76064163Y-84084618D01*
X76064169Y-84084614D01*
X76147104Y-84024358D01*
X76147105Y-84024358D01*
X75407409Y-83284662D01*
X75470993Y-83267625D01*
X75585007Y-83201799D01*
X75678099Y-83108707D01*
X75743925Y-82994693D01*
X75760962Y-82931109D01*
X76500657Y-83670804D01*
X76520404Y-83669250D01*
X76588781Y-83683614D01*
X76630451Y-83719982D01*
X76673483Y-83779210D01*
X76840490Y-83946217D01*
X77031567Y-84085043D01*
X77130991Y-84135702D01*
X77242003Y-84192266D01*
X77242005Y-84192266D01*
X77242008Y-84192268D01*
X77362412Y-84231389D01*
X77466631Y-84265253D01*
X77699903Y-84302200D01*
X77699908Y-84302200D01*
X77936097Y-84302200D01*
X78169368Y-84265253D01*
X78170870Y-84264765D01*
X78393992Y-84192268D01*
X78604433Y-84085043D01*
X78795510Y-83946217D01*
X78962517Y-83779210D01*
X78987682Y-83744572D01*
X79043011Y-83701907D01*
X79112625Y-83695928D01*
X79174420Y-83728533D01*
X79188315Y-83744570D01*
X79213483Y-83779210D01*
X79380490Y-83946217D01*
X79571567Y-84085043D01*
X79670991Y-84135702D01*
X79782003Y-84192266D01*
X79782005Y-84192266D01*
X79782008Y-84192268D01*
X79902412Y-84231389D01*
X80006631Y-84265253D01*
X80239903Y-84302200D01*
X80239908Y-84302200D01*
X80476097Y-84302200D01*
X80709368Y-84265253D01*
X80710870Y-84264765D01*
X80933992Y-84192268D01*
X81144433Y-84085043D01*
X81335510Y-83946217D01*
X81502517Y-83779210D01*
X81527682Y-83744572D01*
X81583011Y-83701907D01*
X81652625Y-83695928D01*
X81714420Y-83728533D01*
X81728315Y-83744570D01*
X81753483Y-83779210D01*
X81920490Y-83946217D01*
X82111567Y-84085043D01*
X82210991Y-84135702D01*
X82322003Y-84192266D01*
X82322005Y-84192266D01*
X82322008Y-84192268D01*
X82442412Y-84231389D01*
X82546631Y-84265253D01*
X82779903Y-84302200D01*
X82779908Y-84302200D01*
X83016097Y-84302200D01*
X83249368Y-84265253D01*
X83250870Y-84264765D01*
X83473992Y-84192268D01*
X83684433Y-84085043D01*
X83875510Y-83946217D01*
X84042517Y-83779210D01*
X84181343Y-83588133D01*
X84288568Y-83377692D01*
X84361553Y-83153068D01*
X84368579Y-83108707D01*
X84398500Y-82919797D01*
X84398500Y-82683602D01*
X84361553Y-82450331D01*
X84288566Y-82225703D01*
X84197327Y-82046638D01*
X84181343Y-82015267D01*
X84042517Y-81824190D01*
X83875510Y-81657183D01*
X83840872Y-81632017D01*
X83798207Y-81576689D01*
X83792228Y-81507075D01*
X83824833Y-81445280D01*
X83840873Y-81431382D01*
X83875510Y-81406217D01*
X84042517Y-81239210D01*
X84181343Y-81048133D01*
X84288568Y-80837692D01*
X84329100Y-80712949D01*
X84340202Y-80678780D01*
X84340202Y-80678779D01*
X84361552Y-80613072D01*
X84361552Y-80613071D01*
X84361553Y-80613068D01*
X84383414Y-80475040D01*
X84398500Y-80379797D01*
X84398500Y-80143602D01*
X84361553Y-79910331D01*
X84297980Y-79714675D01*
X84288568Y-79685708D01*
X84288566Y-79685705D01*
X84288566Y-79685703D01*
X84197492Y-79506962D01*
X84181343Y-79475267D01*
X84042517Y-79284190D01*
X83875510Y-79117183D01*
X83684433Y-78978357D01*
X83659598Y-78965703D01*
X83473996Y-78871133D01*
X83249368Y-78798146D01*
X83016097Y-78761200D01*
X83016092Y-78761200D01*
X83007096Y-78761200D01*
X82940057Y-78741515D01*
X82894302Y-78688711D01*
X82884358Y-78619553D01*
X82913383Y-78555997D01*
X82919415Y-78549519D01*
X84411416Y-77057519D01*
X84472739Y-77024034D01*
X84499097Y-77021200D01*
X103500234Y-77021200D01*
X103567273Y-77040885D01*
X103569125Y-77042098D01*
X103700814Y-77130090D01*
X103700827Y-77130097D01*
X103846498Y-77190435D01*
X103846503Y-77190437D01*
X104001153Y-77221199D01*
X104001156Y-77221200D01*
X104001158Y-77221200D01*
X104158844Y-77221200D01*
X104158845Y-77221199D01*
X104313497Y-77190437D01*
X104459179Y-77130094D01*
X104590289Y-77042489D01*
X104701789Y-76930989D01*
X104789394Y-76799879D01*
X104849737Y-76654197D01*
X104880500Y-76499542D01*
X104880500Y-76341858D01*
X104880500Y-76341855D01*
X104880499Y-76341853D01*
X104849738Y-76187210D01*
X104849737Y-76187203D01*
X104792528Y-76049086D01*
X104789397Y-76041527D01*
X104789390Y-76041514D01*
X104701789Y-75910411D01*
X104701786Y-75910407D01*
X104590292Y-75798913D01*
X104590288Y-75798910D01*
X104459185Y-75711309D01*
X104459172Y-75711302D01*
X104313501Y-75650964D01*
X104313489Y-75650961D01*
X104158845Y-75620200D01*
X104158842Y-75620200D01*
X104001158Y-75620200D01*
X104001155Y-75620200D01*
X103846510Y-75650961D01*
X103846498Y-75650964D01*
X103700827Y-75711302D01*
X103700814Y-75711309D01*
X103569125Y-75799302D01*
X103502447Y-75820180D01*
X103500234Y-75820200D01*
X84278057Y-75820200D01*
X84119942Y-75820200D01*
X83967215Y-75861123D01*
X83967214Y-75861123D01*
X83967212Y-75861124D01*
X83967209Y-75861125D01*
X83917096Y-75890059D01*
X83917095Y-75890060D01*
X83881853Y-75910407D01*
X83830285Y-75940179D01*
X83830282Y-75940181D01*
X83718478Y-76051986D01*
X80961563Y-78808900D01*
X80900240Y-78842385D01*
X80835564Y-78839150D01*
X80709370Y-78798147D01*
X80476097Y-78761200D01*
X80476092Y-78761200D01*
X80239908Y-78761200D01*
X80239903Y-78761200D01*
X80006631Y-78798146D01*
X79782003Y-78871133D01*
X79571566Y-78978357D01*
X79484383Y-79041700D01*
X79380490Y-79117183D01*
X79380488Y-79117185D01*
X79380487Y-79117185D01*
X79213484Y-79284188D01*
X79188318Y-79318827D01*
X79132987Y-79361492D01*
X79063374Y-79367471D01*
X79001579Y-79334865D01*
X78987682Y-79318827D01*
X78962517Y-79284190D01*
X78795510Y-79117183D01*
X78604433Y-78978357D01*
X78579598Y-78965703D01*
X78393996Y-78871133D01*
X78169368Y-78798146D01*
X77936097Y-78761200D01*
X77936092Y-78761200D01*
X77699908Y-78761200D01*
X77699903Y-78761200D01*
X77466631Y-78798146D01*
X77242003Y-78871133D01*
X77031566Y-78978357D01*
X76944383Y-79041700D01*
X76840490Y-79117183D01*
X76840488Y-79117185D01*
X76840487Y-79117185D01*
X76673484Y-79284188D01*
X76648318Y-79318827D01*
X76592987Y-79361492D01*
X76523374Y-79367471D01*
X76461579Y-79334865D01*
X76447682Y-79318827D01*
X76422517Y-79284190D01*
X76255510Y-79117183D01*
X76064433Y-78978357D01*
X76039598Y-78965703D01*
X75853996Y-78871133D01*
X75629368Y-78798146D01*
X75396097Y-78761200D01*
X75396092Y-78761200D01*
X75387134Y-78761200D01*
X75320095Y-78741515D01*
X75274340Y-78688711D01*
X75264396Y-78619553D01*
X75293421Y-78555997D01*
X75299454Y-78549518D01*
X80173791Y-73675266D01*
X90212413Y-63636817D01*
X90273736Y-63603334D01*
X90300093Y-63600500D01*
X107883500Y-63600500D01*
X107950539Y-63620185D01*
X107996294Y-63672989D01*
X108007500Y-63724500D01*
X108007500Y-65349570D01*
X108007501Y-65349576D01*
X108013908Y-65409183D01*
X108064202Y-65544028D01*
X108064206Y-65544035D01*
X108150452Y-65659244D01*
X108150455Y-65659247D01*
X108265664Y-65745493D01*
X108273454Y-65749747D01*
X108271646Y-65753057D01*
X108313351Y-65784149D01*
X108337897Y-65849565D01*
X108323180Y-65917867D01*
X108314549Y-65931540D01*
X108224659Y-66055263D01*
X108117433Y-66265703D01*
X108044446Y-66490331D01*
X108007500Y-66723602D01*
X108007500Y-66959797D01*
X108044446Y-67193068D01*
X108117433Y-67417696D01*
X108200998Y-67581700D01*
X108224657Y-67628133D01*
X108363483Y-67819210D01*
X108530490Y-67986217D01*
X108565127Y-68011383D01*
X108607792Y-68066713D01*
X108613771Y-68136326D01*
X108581165Y-68198121D01*
X108565130Y-68212015D01*
X108547365Y-68224922D01*
X108530488Y-68237184D01*
X108363485Y-68404187D01*
X108363485Y-68404188D01*
X108363483Y-68404190D01*
X108349396Y-68423579D01*
X108224657Y-68595266D01*
X108117433Y-68805703D01*
X108044446Y-69030331D01*
X108007500Y-69263602D01*
X108007500Y-69499797D01*
X108044446Y-69733068D01*
X108117433Y-69957696D01*
X108224657Y-70168133D01*
X108363483Y-70359210D01*
X108530490Y-70526217D01*
X108565127Y-70551383D01*
X108607792Y-70606713D01*
X108613771Y-70676326D01*
X108581165Y-70738121D01*
X108565130Y-70752015D01*
X108547365Y-70764922D01*
X108530488Y-70777184D01*
X108363485Y-70944187D01*
X108363485Y-70944188D01*
X108363483Y-70944190D01*
X108343160Y-70972162D01*
X108224657Y-71135266D01*
X108117433Y-71345703D01*
X108044446Y-71570331D01*
X108007500Y-71803602D01*
X108007500Y-72039797D01*
X108044446Y-72273068D01*
X108117433Y-72497696D01*
X108154229Y-72569911D01*
X108224657Y-72708133D01*
X108363483Y-72899210D01*
X108530490Y-73066217D01*
X108565127Y-73091383D01*
X108607792Y-73146713D01*
X108613771Y-73216326D01*
X108581165Y-73278121D01*
X108565130Y-73292015D01*
X108547365Y-73304922D01*
X108530488Y-73317184D01*
X108363485Y-73484187D01*
X108363485Y-73484188D01*
X108363483Y-73484190D01*
X108303862Y-73566250D01*
X108224657Y-73675266D01*
X108117433Y-73885703D01*
X108044446Y-74110331D01*
X108007500Y-74343602D01*
X108007500Y-74579797D01*
X108044446Y-74813068D01*
X108117433Y-75037696D01*
X108159812Y-75120868D01*
X108224657Y-75248133D01*
X108363483Y-75439210D01*
X108530490Y-75606217D01*
X108565127Y-75631383D01*
X108607792Y-75686713D01*
X108613771Y-75756326D01*
X108581165Y-75818121D01*
X108565130Y-75832015D01*
X108547365Y-75844922D01*
X108530488Y-75857184D01*
X108363485Y-76024187D01*
X108363485Y-76024188D01*
X108363483Y-76024190D01*
X108343288Y-76051986D01*
X108224657Y-76215266D01*
X108117433Y-76425703D01*
X108044446Y-76650331D01*
X108007500Y-76883602D01*
X108007500Y-77119797D01*
X108044446Y-77353068D01*
X108117433Y-77577696D01*
X108224657Y-77788133D01*
X108363483Y-77979210D01*
X108530490Y-78146217D01*
X108589716Y-78189247D01*
X108632381Y-78244575D01*
X108640448Y-78299293D01*
X108638893Y-78319040D01*
X109378591Y-79058737D01*
X109315007Y-79075775D01*
X109200993Y-79141601D01*
X109107901Y-79234693D01*
X109042075Y-79348707D01*
X109025037Y-79412291D01*
X108285340Y-78672594D01*
X108225084Y-78755530D01*
X108117897Y-78965897D01*
X108044934Y-79190452D01*
X108008000Y-79423647D01*
X108008000Y-79659752D01*
X108044934Y-79892947D01*
X108117897Y-80117502D01*
X108225087Y-80327874D01*
X108285338Y-80410804D01*
X108285340Y-80410805D01*
X109025037Y-79671108D01*
X109042075Y-79734693D01*
X109107901Y-79848707D01*
X109200993Y-79941799D01*
X109315007Y-80007625D01*
X109378590Y-80024662D01*
X108638893Y-80764358D01*
X108721828Y-80824614D01*
X108932197Y-80931802D01*
X109156752Y-81004765D01*
X109156751Y-81004765D01*
X109389948Y-81041700D01*
X109626052Y-81041700D01*
X109859247Y-81004765D01*
X110083802Y-80931802D01*
X110294163Y-80824618D01*
X110294169Y-80824614D01*
X110377104Y-80764358D01*
X110377105Y-80764358D01*
X109637408Y-80024662D01*
X109700993Y-80007625D01*
X109815007Y-79941799D01*
X109908099Y-79848707D01*
X109973925Y-79734693D01*
X109990962Y-79671109D01*
X110730658Y-80410805D01*
X110730658Y-80410804D01*
X110790914Y-80327869D01*
X110790918Y-80327863D01*
X110898102Y-80117502D01*
X110971065Y-79892947D01*
X111008000Y-79659752D01*
X111008000Y-79423647D01*
X110971065Y-79190452D01*
X110898102Y-78965897D01*
X110790914Y-78755528D01*
X110730658Y-78672594D01*
X110730658Y-78672593D01*
X109990962Y-79412290D01*
X109973925Y-79348707D01*
X109908099Y-79234693D01*
X109815007Y-79141601D01*
X109700993Y-79075775D01*
X109637409Y-79058737D01*
X110377105Y-78319040D01*
X110375551Y-78299294D01*
X110389915Y-78230916D01*
X110426284Y-78189247D01*
X110485510Y-78146217D01*
X110652517Y-77979210D01*
X110791343Y-77788133D01*
X110898568Y-77577692D01*
X110971553Y-77353068D01*
X110997311Y-77190438D01*
X111008500Y-77119797D01*
X111008500Y-76883602D01*
X110971553Y-76650331D01*
X110898566Y-76425703D01*
X110791342Y-76215266D01*
X110770953Y-76187203D01*
X110670602Y-76049083D01*
X110647124Y-75983280D01*
X110662949Y-75915226D01*
X110713055Y-75866531D01*
X110770922Y-75852200D01*
X113597331Y-75852200D01*
X113597347Y-75852201D01*
X113604943Y-75852201D01*
X113763054Y-75852201D01*
X113763057Y-75852201D01*
X113915785Y-75811277D01*
X113986932Y-75770200D01*
X114052716Y-75732220D01*
X114164520Y-75620416D01*
X114164520Y-75620414D01*
X114174724Y-75610211D01*
X114174728Y-75610206D01*
X115415819Y-74369115D01*
X115477142Y-74335630D01*
X115546834Y-74340614D01*
X115602767Y-74382486D01*
X115627184Y-74447950D01*
X115627500Y-74456796D01*
X115627500Y-74579797D01*
X115664446Y-74813068D01*
X115737433Y-75037696D01*
X115779812Y-75120868D01*
X115844657Y-75248133D01*
X115983483Y-75439210D01*
X116150490Y-75606217D01*
X116185127Y-75631383D01*
X116227792Y-75686713D01*
X116233771Y-75756326D01*
X116201165Y-75818121D01*
X116185130Y-75832015D01*
X116167365Y-75844922D01*
X116150488Y-75857184D01*
X115983485Y-76024187D01*
X115983485Y-76024188D01*
X115983483Y-76024190D01*
X115963288Y-76051986D01*
X115844657Y-76215266D01*
X115737433Y-76425703D01*
X115664446Y-76650331D01*
X115627500Y-76883602D01*
X115627500Y-77119797D01*
X115664446Y-77353068D01*
X115737433Y-77577696D01*
X115844657Y-77788133D01*
X115983483Y-77979210D01*
X116150490Y-78146217D01*
X116185127Y-78171383D01*
X116227792Y-78226713D01*
X116233771Y-78296326D01*
X116201165Y-78358121D01*
X116185130Y-78372015D01*
X116167365Y-78384922D01*
X116150488Y-78397184D01*
X115983485Y-78564187D01*
X115983485Y-78564188D01*
X115983483Y-78564190D01*
X115943259Y-78619553D01*
X115844657Y-78755266D01*
X115737433Y-78965703D01*
X115664446Y-79190331D01*
X115627500Y-79423602D01*
X115627500Y-79659797D01*
X115664446Y-79893068D01*
X115737433Y-80117696D01*
X115798167Y-80236892D01*
X115844657Y-80328133D01*
X115983483Y-80519210D01*
X116150490Y-80686217D01*
X116341567Y-80825043D01*
X116440991Y-80875702D01*
X116552003Y-80932266D01*
X116552005Y-80932266D01*
X116552008Y-80932268D01*
X116672412Y-80971389D01*
X116776631Y-81005253D01*
X117009903Y-81042200D01*
X117009908Y-81042200D01*
X117246097Y-81042200D01*
X117479368Y-81005253D01*
X117480870Y-81004765D01*
X117703992Y-80932268D01*
X117914433Y-80825043D01*
X118105510Y-80686217D01*
X118272517Y-80519210D01*
X118411343Y-80328133D01*
X118518568Y-80117692D01*
X118591553Y-79893068D01*
X118597499Y-79855527D01*
X118628500Y-79659797D01*
X118628500Y-79423602D01*
X118591553Y-79190331D01*
X118518566Y-78965703D01*
X118455732Y-78842385D01*
X118411343Y-78755267D01*
X118272517Y-78564190D01*
X118105510Y-78397183D01*
X118070872Y-78372017D01*
X118028207Y-78316689D01*
X118022228Y-78247075D01*
X118054833Y-78185280D01*
X118070873Y-78171382D01*
X118105510Y-78146217D01*
X118272517Y-77979210D01*
X118411343Y-77788133D01*
X118518568Y-77577692D01*
X118591553Y-77353068D01*
X118617311Y-77190438D01*
X118628500Y-77119797D01*
X118628500Y-76883602D01*
X118591553Y-76650331D01*
X118518566Y-76425703D01*
X118411342Y-76215266D01*
X118390953Y-76187203D01*
X118272517Y-76024190D01*
X118105510Y-75857183D01*
X118070872Y-75832017D01*
X118028207Y-75776689D01*
X118022228Y-75707075D01*
X118054833Y-75645280D01*
X118070873Y-75631382D01*
X118105510Y-75606217D01*
X118224514Y-75487213D01*
X138357500Y-75487213D01*
X138357500Y-75676186D01*
X138387059Y-75862818D01*
X138445454Y-76042536D01*
X138519164Y-76187198D01*
X138531240Y-76210899D01*
X138642310Y-76363773D01*
X138775927Y-76497390D01*
X138928801Y-76608460D01*
X139008347Y-76648990D01*
X139097163Y-76694245D01*
X139097165Y-76694245D01*
X139097168Y-76694247D01*
X139193497Y-76725546D01*
X139276881Y-76752640D01*
X139463514Y-76782200D01*
X139463519Y-76782200D01*
X139652486Y-76782200D01*
X139839118Y-76752640D01*
X140018832Y-76694247D01*
X140187199Y-76608460D01*
X140340073Y-76497390D01*
X140473690Y-76363773D01*
X140584760Y-76210899D01*
X140670547Y-76042532D01*
X140728940Y-75862818D01*
X140729832Y-75857184D01*
X140758500Y-75676186D01*
X140758500Y-75487213D01*
X140728940Y-75300581D01*
X140670545Y-75120863D01*
X140584759Y-74952500D01*
X140473690Y-74799627D01*
X140340073Y-74666010D01*
X140187199Y-74554940D01*
X140018836Y-74469154D01*
X139839118Y-74410759D01*
X139652486Y-74381200D01*
X139652481Y-74381200D01*
X139463519Y-74381200D01*
X139463514Y-74381200D01*
X139276881Y-74410759D01*
X139097163Y-74469154D01*
X138928800Y-74554940D01*
X138896083Y-74578711D01*
X138775927Y-74666010D01*
X138775925Y-74666012D01*
X138775924Y-74666012D01*
X138642312Y-74799624D01*
X138642312Y-74799625D01*
X138642310Y-74799627D01*
X138626325Y-74821629D01*
X138531240Y-74952500D01*
X138445454Y-75120863D01*
X138387059Y-75300581D01*
X138357500Y-75487213D01*
X118224514Y-75487213D01*
X118272517Y-75439210D01*
X118411343Y-75248133D01*
X118518568Y-75037692D01*
X118591553Y-74813068D01*
X118599047Y-74765751D01*
X118628500Y-74579797D01*
X118628500Y-74343602D01*
X118591553Y-74110331D01*
X118518566Y-73885703D01*
X118455155Y-73761253D01*
X118411343Y-73675267D01*
X118272517Y-73484190D01*
X118105510Y-73317183D01*
X118070872Y-73292017D01*
X118028207Y-73236689D01*
X118022228Y-73167075D01*
X118054833Y-73105280D01*
X118070873Y-73091382D01*
X118105510Y-73066217D01*
X118272517Y-72899210D01*
X118411343Y-72708133D01*
X118518568Y-72497692D01*
X118591553Y-72273068D01*
X118592043Y-72269973D01*
X118628500Y-72039797D01*
X118628500Y-71803602D01*
X118607005Y-71667897D01*
X118591553Y-71570332D01*
X118580543Y-71536447D01*
X127307500Y-71536447D01*
X127307500Y-73626938D01*
X127307501Y-73626953D01*
X127316748Y-73744464D01*
X127318070Y-73761253D01*
X127349429Y-73885703D01*
X127373949Y-73983015D01*
X127468528Y-74191237D01*
X127468531Y-74191243D01*
X127598759Y-74379214D01*
X127598763Y-74379219D01*
X127598766Y-74379223D01*
X127760477Y-74540934D01*
X127760481Y-74540937D01*
X127760485Y-74540940D01*
X127948456Y-74671168D01*
X127948462Y-74671171D01*
X127948463Y-74671171D01*
X127948464Y-74671172D01*
X128156684Y-74765751D01*
X128378447Y-74821630D01*
X128512753Y-74832200D01*
X130603246Y-74832199D01*
X130737553Y-74821630D01*
X130959316Y-74765751D01*
X131167536Y-74671172D01*
X131167538Y-74671170D01*
X131167543Y-74671168D01*
X131314756Y-74569177D01*
X131355523Y-74540934D01*
X131517234Y-74379223D01*
X131547435Y-74335630D01*
X131647468Y-74191243D01*
X131647471Y-74191237D01*
X131647472Y-74191236D01*
X131742051Y-73983016D01*
X131797930Y-73761253D01*
X131808500Y-73626947D01*
X131808499Y-71536454D01*
X131797930Y-71402147D01*
X131742051Y-71180384D01*
X131647472Y-70972164D01*
X131647471Y-70972162D01*
X131647468Y-70972156D01*
X131517240Y-70784185D01*
X131517237Y-70784181D01*
X131517234Y-70784177D01*
X131355523Y-70622466D01*
X131355519Y-70622463D01*
X131355514Y-70622459D01*
X131167543Y-70492231D01*
X131167537Y-70492228D01*
X131063426Y-70444938D01*
X130959316Y-70397649D01*
X130737553Y-70341770D01*
X130603247Y-70331200D01*
X130603245Y-70331200D01*
X128512761Y-70331200D01*
X128512746Y-70331201D01*
X128378447Y-70341770D01*
X128156684Y-70397649D01*
X127948462Y-70492228D01*
X127948456Y-70492231D01*
X127760485Y-70622459D01*
X127760473Y-70622469D01*
X127598769Y-70784173D01*
X127598759Y-70784185D01*
X127468531Y-70972156D01*
X127468528Y-70972162D01*
X127373949Y-71180384D01*
X127318070Y-71402147D01*
X127307500Y-71536447D01*
X118580543Y-71536447D01*
X118518568Y-71345708D01*
X118518566Y-71345705D01*
X118518566Y-71345703D01*
X118411342Y-71135266D01*
X118272517Y-70944190D01*
X118105510Y-70777183D01*
X118070872Y-70752017D01*
X118028207Y-70696689D01*
X118022228Y-70627075D01*
X118054833Y-70565280D01*
X118070873Y-70551382D01*
X118105510Y-70526217D01*
X118272517Y-70359210D01*
X118411343Y-70168133D01*
X118518568Y-69957692D01*
X118591553Y-69733068D01*
X118611997Y-69603990D01*
X118628500Y-69499797D01*
X118628500Y-69263602D01*
X118591553Y-69030331D01*
X118557689Y-68926112D01*
X118518568Y-68805708D01*
X118518566Y-68805705D01*
X118518566Y-68805703D01*
X118411342Y-68595266D01*
X118399510Y-68578981D01*
X118272517Y-68404190D01*
X118105510Y-68237183D01*
X118070872Y-68212017D01*
X118028207Y-68156689D01*
X118022228Y-68087075D01*
X118054833Y-68025280D01*
X118070873Y-68011382D01*
X118105510Y-67986217D01*
X118272517Y-67819210D01*
X118411343Y-67628133D01*
X118510140Y-67434233D01*
X127308000Y-67434233D01*
X127308000Y-67729166D01*
X127308001Y-67729183D01*
X127346496Y-68021584D01*
X127346499Y-68021597D01*
X127422835Y-68306490D01*
X127422838Y-68306500D01*
X127535704Y-68578981D01*
X127535709Y-68578992D01*
X127683174Y-68834407D01*
X127683180Y-68834415D01*
X127799777Y-68986367D01*
X128731473Y-68054670D01*
X128820087Y-68187290D01*
X128952410Y-68319613D01*
X129085027Y-68408225D01*
X128153331Y-69339921D01*
X128305284Y-69456519D01*
X128305292Y-69456525D01*
X128560707Y-69603990D01*
X128560718Y-69603995D01*
X128833199Y-69716861D01*
X128833209Y-69716864D01*
X129118102Y-69793200D01*
X129118115Y-69793203D01*
X129410516Y-69831698D01*
X129410534Y-69831700D01*
X129705466Y-69831700D01*
X129705483Y-69831698D01*
X129997884Y-69793203D01*
X129997897Y-69793200D01*
X130282790Y-69716864D01*
X130282800Y-69716861D01*
X130555281Y-69603995D01*
X130555292Y-69603990D01*
X130810707Y-69456525D01*
X130810725Y-69456513D01*
X130962667Y-69339922D01*
X130962667Y-69339920D01*
X130030971Y-68408225D01*
X130163590Y-68319613D01*
X130295913Y-68187290D01*
X130384525Y-68054671D01*
X131316220Y-68986367D01*
X131316222Y-68986367D01*
X131432813Y-68834425D01*
X131432825Y-68834407D01*
X131580290Y-68578992D01*
X131580295Y-68578981D01*
X131693161Y-68306500D01*
X131693164Y-68306490D01*
X131769500Y-68021597D01*
X131769503Y-68021584D01*
X131807998Y-67729183D01*
X131808000Y-67729166D01*
X131808000Y-67434233D01*
X131807998Y-67434216D01*
X131769503Y-67141815D01*
X131769500Y-67141802D01*
X131693164Y-66856909D01*
X131693161Y-66856899D01*
X131580295Y-66584418D01*
X131580290Y-66584407D01*
X131432825Y-66328992D01*
X131432819Y-66328984D01*
X131316221Y-66177031D01*
X130384525Y-67108727D01*
X130295913Y-66976110D01*
X130163590Y-66843787D01*
X130030971Y-66755174D01*
X130962667Y-65823477D01*
X130810715Y-65706880D01*
X130810707Y-65706874D01*
X130555292Y-65559409D01*
X130555281Y-65559404D01*
X130282800Y-65446538D01*
X130282790Y-65446535D01*
X129997897Y-65370199D01*
X129997884Y-65370196D01*
X129705483Y-65331701D01*
X129705466Y-65331700D01*
X129410534Y-65331700D01*
X129410516Y-65331701D01*
X129118115Y-65370196D01*
X129118102Y-65370199D01*
X128833209Y-65446535D01*
X128833199Y-65446538D01*
X128560718Y-65559404D01*
X128560707Y-65559409D01*
X128305292Y-65706874D01*
X128305276Y-65706885D01*
X128153331Y-65823475D01*
X128153331Y-65823477D01*
X129085028Y-66755174D01*
X128952410Y-66843787D01*
X128820087Y-66976110D01*
X128731474Y-67108728D01*
X127799777Y-66177031D01*
X127799775Y-66177031D01*
X127683185Y-66328976D01*
X127683174Y-66328992D01*
X127535709Y-66584407D01*
X127535704Y-66584418D01*
X127422838Y-66856899D01*
X127422835Y-66856909D01*
X127346499Y-67141802D01*
X127346496Y-67141815D01*
X127308001Y-67434216D01*
X127308000Y-67434233D01*
X118510140Y-67434233D01*
X118518568Y-67417692D01*
X118591553Y-67193068D01*
X118625916Y-66976110D01*
X118628500Y-66959797D01*
X118628500Y-66723602D01*
X118591553Y-66490331D01*
X118518566Y-66265703D01*
X118411342Y-66055266D01*
X118330732Y-65944316D01*
X118272517Y-65864190D01*
X118105510Y-65697183D01*
X118070872Y-65672017D01*
X118028207Y-65616689D01*
X118022228Y-65547075D01*
X118054833Y-65485280D01*
X118070873Y-65471382D01*
X118105510Y-65446217D01*
X118272517Y-65279210D01*
X118411343Y-65088133D01*
X118518568Y-64877692D01*
X118591553Y-64653068D01*
X118617822Y-64487213D01*
X138357500Y-64487213D01*
X138357500Y-64676186D01*
X138387059Y-64862818D01*
X138445454Y-65042536D01*
X138531240Y-65210899D01*
X138642310Y-65363773D01*
X138775927Y-65497390D01*
X138928801Y-65608460D01*
X139008347Y-65648990D01*
X139097163Y-65694245D01*
X139097165Y-65694245D01*
X139097168Y-65694247D01*
X139136064Y-65706885D01*
X139276881Y-65752640D01*
X139463514Y-65782200D01*
X139463519Y-65782200D01*
X139652486Y-65782200D01*
X139839118Y-65752640D01*
X139861114Y-65745493D01*
X140018832Y-65694247D01*
X140187199Y-65608460D01*
X140340073Y-65497390D01*
X140473690Y-65363773D01*
X140584760Y-65210899D01*
X140670547Y-65042532D01*
X140728940Y-64862818D01*
X140758500Y-64676186D01*
X140758500Y-64487213D01*
X140728940Y-64300581D01*
X140701846Y-64217197D01*
X140670547Y-64120868D01*
X140670545Y-64120865D01*
X140670545Y-64120863D01*
X140584759Y-63952500D01*
X140583183Y-63950331D01*
X140473690Y-63799627D01*
X140340073Y-63666010D01*
X140187199Y-63554940D01*
X140018836Y-63469154D01*
X139839118Y-63410759D01*
X139652486Y-63381200D01*
X139652481Y-63381200D01*
X139463519Y-63381200D01*
X139463514Y-63381200D01*
X139276881Y-63410759D01*
X139097163Y-63469154D01*
X138928800Y-63554940D01*
X138850670Y-63611706D01*
X138775927Y-63666010D01*
X138775925Y-63666012D01*
X138775924Y-63666012D01*
X138642312Y-63799624D01*
X138642312Y-63799625D01*
X138642310Y-63799627D01*
X138624374Y-63824314D01*
X138531240Y-63952500D01*
X138445454Y-64120863D01*
X138387059Y-64300581D01*
X138357500Y-64487213D01*
X118617822Y-64487213D01*
X118621665Y-64462948D01*
X118628500Y-64419796D01*
X118628500Y-64183602D01*
X118591553Y-63950331D01*
X118529588Y-63759624D01*
X118518568Y-63725708D01*
X118518566Y-63725705D01*
X118518566Y-63725703D01*
X118411342Y-63515266D01*
X118272517Y-63324190D01*
X118105510Y-63157183D01*
X117914433Y-63018357D01*
X117703996Y-62911133D01*
X117479368Y-62838146D01*
X117246097Y-62801200D01*
X117246092Y-62801200D01*
X117009908Y-62801200D01*
X117009903Y-62801200D01*
X116776630Y-62838147D01*
X116776627Y-62838147D01*
X116650256Y-62879208D01*
X116580415Y-62881203D01*
X116524267Y-62848968D01*
X116251213Y-62575977D01*
X116194716Y-62519480D01*
X116194687Y-62519463D01*
X116194663Y-62519439D01*
X116194660Y-62519437D01*
X116128464Y-62481229D01*
X116128465Y-62481226D01*
X116128451Y-62481222D01*
X116078181Y-62452199D01*
X116057781Y-62440421D01*
X116057731Y-62440400D01*
X115979756Y-62419515D01*
X115979746Y-62419512D01*
X115905043Y-62399496D01*
X115904993Y-62399489D01*
X115821770Y-62399500D01*
X90079062Y-62399500D01*
X89920948Y-62399499D01*
X89920944Y-62399500D01*
X89920943Y-62399500D01*
X89846246Y-62419515D01*
X89768216Y-62440423D01*
X89768209Y-62440426D01*
X89631290Y-62519475D01*
X89631282Y-62519481D01*
X89519481Y-62631283D01*
X89519480Y-62631284D01*
X73341576Y-78808905D01*
X73280253Y-78842389D01*
X73215578Y-78839154D01*
X73089371Y-78798147D01*
X72856097Y-78761200D01*
X72856092Y-78761200D01*
X72619908Y-78761200D01*
X72619903Y-78761200D01*
X72386631Y-78798146D01*
X72162003Y-78871133D01*
X71951566Y-78978357D01*
X71864383Y-79041700D01*
X71760490Y-79117183D01*
X71760488Y-79117185D01*
X71760487Y-79117185D01*
X71593485Y-79284187D01*
X71593485Y-79284188D01*
X71593483Y-79284190D01*
X71546609Y-79348707D01*
X71454657Y-79475266D01*
X71347433Y-79685703D01*
X71274446Y-79910331D01*
X71237500Y-80143602D01*
X65891361Y-80143602D01*
X65668309Y-80029952D01*
X65540426Y-79976981D01*
X65247212Y-79855527D01*
X65247205Y-79855524D01*
X65247201Y-79855523D01*
X64813705Y-79714671D01*
X64370494Y-79608266D01*
X63920302Y-79536962D01*
X63465907Y-79501200D01*
X63465902Y-79501200D01*
X63010098Y-79501200D01*
X63010092Y-79501200D01*
X62555697Y-79536962D01*
X62555696Y-79536962D01*
X62105511Y-79608265D01*
X62105508Y-79608265D01*
X62105506Y-79608266D01*
X61946784Y-79646371D01*
X61662306Y-79714668D01*
X61662301Y-79714669D01*
X61662295Y-79714671D01*
X61321129Y-79825523D01*
X61228799Y-79855523D01*
X61228787Y-79855527D01*
X60807693Y-80029951D01*
X60401552Y-80236889D01*
X60401547Y-80236892D01*
X60012938Y-80475033D01*
X60012927Y-80475041D01*
X59644182Y-80742949D01*
X59644168Y-80742960D01*
X59297585Y-81038970D01*
X59297571Y-81038983D01*
X58975283Y-81361271D01*
X58975270Y-81361285D01*
X58679260Y-81707868D01*
X58679249Y-81707882D01*
X58411341Y-82076627D01*
X58411333Y-82076638D01*
X58173192Y-82465247D01*
X58173189Y-82465252D01*
X57966251Y-82871393D01*
X57791827Y-83292487D01*
X57791823Y-83292499D01*
X57650971Y-83725995D01*
X57650969Y-83726001D01*
X57650968Y-83726006D01*
X57544565Y-84169211D01*
X57473262Y-84619396D01*
X57473262Y-84619397D01*
X57437500Y-85073792D01*
X53738546Y-85073792D01*
X53738546Y-85071338D01*
X53738752Y-84044035D01*
X53740630Y-74651200D01*
X53744339Y-56103835D01*
X122057500Y-56103835D01*
X122057500Y-58699570D01*
X122057501Y-58699576D01*
X122063908Y-58759183D01*
X122114202Y-58894028D01*
X122114206Y-58894035D01*
X122200452Y-59009244D01*
X122200455Y-59009247D01*
X122315664Y-59095493D01*
X122315671Y-59095497D01*
X122450517Y-59145791D01*
X122450516Y-59145791D01*
X122457444Y-59146535D01*
X122510127Y-59152200D01*
X125105872Y-59152199D01*
X125165483Y-59145791D01*
X125300331Y-59095496D01*
X125415546Y-59009246D01*
X125501796Y-58894031D01*
X125552091Y-58759183D01*
X125558500Y-58699573D01*
X125558499Y-57286958D01*
X127557500Y-57286958D01*
X127557500Y-57516441D01*
X127582446Y-57705915D01*
X127587452Y-57743938D01*
X127587453Y-57743940D01*
X127646842Y-57965587D01*
X127734650Y-58177576D01*
X127734657Y-58177590D01*
X127849392Y-58376317D01*
X127989081Y-58558361D01*
X127989089Y-58558370D01*
X128151330Y-58720611D01*
X128151338Y-58720618D01*
X128333382Y-58860307D01*
X128333385Y-58860308D01*
X128333388Y-58860311D01*
X128532112Y-58975044D01*
X128532117Y-58975046D01*
X128532123Y-58975049D01*
X128614678Y-59009244D01*
X128744113Y-59062858D01*
X128965762Y-59122248D01*
X129182312Y-59150757D01*
X129193250Y-59152198D01*
X129193266Y-59152200D01*
X129193273Y-59152200D01*
X129422727Y-59152200D01*
X129422734Y-59152200D01*
X129650238Y-59122248D01*
X129871887Y-59062858D01*
X130083888Y-58975044D01*
X130282612Y-58860311D01*
X130464661Y-58720619D01*
X130464665Y-58720614D01*
X130464670Y-58720611D01*
X130626911Y-58558370D01*
X130626914Y-58558365D01*
X130626919Y-58558361D01*
X130766611Y-58376312D01*
X130881344Y-58177588D01*
X130969158Y-57965587D01*
X131028548Y-57743938D01*
X131058500Y-57516434D01*
X131058500Y-57286966D01*
X131028548Y-57059462D01*
X130969158Y-56837813D01*
X130881344Y-56625812D01*
X130766611Y-56427088D01*
X130766608Y-56427085D01*
X130766607Y-56427082D01*
X130626918Y-56245038D01*
X130626911Y-56245030D01*
X130464670Y-56082789D01*
X130464661Y-56082781D01*
X130282617Y-55943092D01*
X130224210Y-55909371D01*
X130083888Y-55828356D01*
X130083876Y-55828350D01*
X129871887Y-55740542D01*
X129650238Y-55681152D01*
X129612215Y-55676146D01*
X129422741Y-55651200D01*
X129422734Y-55651200D01*
X129193266Y-55651200D01*
X129193258Y-55651200D01*
X128976715Y-55679709D01*
X128965762Y-55681152D01*
X128872076Y-55706254D01*
X128744112Y-55740542D01*
X128532123Y-55828350D01*
X128532109Y-55828357D01*
X128333382Y-55943092D01*
X128151338Y-56082781D01*
X127989081Y-56245038D01*
X127849392Y-56427082D01*
X127734657Y-56625809D01*
X127734650Y-56625823D01*
X127646842Y-56837812D01*
X127587453Y-57059459D01*
X127587451Y-57059470D01*
X127557500Y-57286958D01*
X125558499Y-57286958D01*
X125558499Y-56103828D01*
X125552091Y-56044217D01*
X125501796Y-55909369D01*
X125501795Y-55909368D01*
X125501793Y-55909364D01*
X125415547Y-55794155D01*
X125415544Y-55794152D01*
X125300335Y-55707906D01*
X125300328Y-55707902D01*
X125165482Y-55657608D01*
X125165483Y-55657608D01*
X125105883Y-55651201D01*
X125105881Y-55651200D01*
X125105873Y-55651200D01*
X125105864Y-55651200D01*
X122510129Y-55651200D01*
X122510123Y-55651201D01*
X122450516Y-55657608D01*
X122315671Y-55707902D01*
X122315664Y-55707906D01*
X122200455Y-55794152D01*
X122200452Y-55794155D01*
X122114206Y-55909364D01*
X122114202Y-55909371D01*
X122063908Y-56044217D01*
X122057860Y-56100481D01*
X122057501Y-56103823D01*
X122057500Y-56103835D01*
X53744339Y-56103835D01*
X53744340Y-56100481D01*
X53744649Y-54555340D01*
X53744942Y-53087005D01*
X122058000Y-53087005D01*
X122058000Y-53316394D01*
X122058001Y-53316410D01*
X122087942Y-53543837D01*
X122147318Y-53765430D01*
X122235102Y-53977359D01*
X122235106Y-53977369D01*
X122349799Y-54176024D01*
X122349805Y-54176031D01*
X122406381Y-54249764D01*
X123017521Y-53638623D01*
X123108924Y-53775417D01*
X123234283Y-53900776D01*
X123371074Y-53992177D01*
X122759934Y-54603317D01*
X122759934Y-54603318D01*
X122833666Y-54659894D01*
X123032330Y-54774593D01*
X123032340Y-54774597D01*
X123244269Y-54862381D01*
X123465862Y-54921757D01*
X123693289Y-54951698D01*
X123693306Y-54951700D01*
X123922694Y-54951700D01*
X123922710Y-54951698D01*
X124150137Y-54921757D01*
X124371730Y-54862381D01*
X124583659Y-54774597D01*
X124583668Y-54774593D01*
X124782327Y-54659897D01*
X124782334Y-54659892D01*
X124856064Y-54603317D01*
X124244924Y-53992177D01*
X124381717Y-53900776D01*
X124507076Y-53775417D01*
X124598477Y-53638624D01*
X125209617Y-54249764D01*
X125266192Y-54176034D01*
X125266197Y-54176027D01*
X125380893Y-53977368D01*
X125380897Y-53977359D01*
X125468681Y-53765430D01*
X125528057Y-53543837D01*
X125557998Y-53316410D01*
X125558000Y-53316394D01*
X125558000Y-53086997D01*
X125557995Y-53086958D01*
X127557500Y-53086958D01*
X127557500Y-53316441D01*
X127576957Y-53464220D01*
X127587452Y-53543938D01*
X127587453Y-53543940D01*
X127646842Y-53765587D01*
X127734650Y-53977576D01*
X127734656Y-53977588D01*
X127849228Y-54176034D01*
X127849392Y-54176317D01*
X127989081Y-54358361D01*
X127989089Y-54358370D01*
X128151330Y-54520611D01*
X128151338Y-54520618D01*
X128333382Y-54660307D01*
X128333385Y-54660308D01*
X128333388Y-54660311D01*
X128532112Y-54775044D01*
X128532117Y-54775046D01*
X128532123Y-54775049D01*
X128623480Y-54812890D01*
X128744113Y-54862858D01*
X128965762Y-54922248D01*
X129193266Y-54952200D01*
X129193273Y-54952200D01*
X129422727Y-54952200D01*
X129422734Y-54952200D01*
X129650238Y-54922248D01*
X129871887Y-54862858D01*
X130083888Y-54775044D01*
X130282612Y-54660311D01*
X130464661Y-54520619D01*
X130464665Y-54520614D01*
X130464670Y-54520611D01*
X130626911Y-54358370D01*
X130626914Y-54358365D01*
X130626919Y-54358361D01*
X130766611Y-54176312D01*
X130881344Y-53977588D01*
X130969158Y-53765587D01*
X131028548Y-53543938D01*
X131058500Y-53316434D01*
X131058500Y-53086966D01*
X131028548Y-52859462D01*
X130969158Y-52637813D01*
X130897655Y-52465189D01*
X130881349Y-52425823D01*
X130881346Y-52425817D01*
X130881344Y-52425812D01*
X130766611Y-52227088D01*
X130766608Y-52227085D01*
X130766607Y-52227082D01*
X130626918Y-52045038D01*
X130626911Y-52045030D01*
X130464670Y-51882789D01*
X130464661Y-51882781D01*
X130282617Y-51743092D01*
X130245057Y-51721407D01*
X130088814Y-51631200D01*
X130083890Y-51628357D01*
X130083876Y-51628350D01*
X129871887Y-51540542D01*
X129650238Y-51481152D01*
X129612215Y-51476146D01*
X129422741Y-51451200D01*
X129422734Y-51451200D01*
X129193266Y-51451200D01*
X129193258Y-51451200D01*
X128976715Y-51479709D01*
X128965762Y-51481152D01*
X128872076Y-51506254D01*
X128744112Y-51540542D01*
X128532123Y-51628350D01*
X128532109Y-51628357D01*
X128333382Y-51743092D01*
X128151338Y-51882781D01*
X127989081Y-52045038D01*
X127849392Y-52227082D01*
X127734657Y-52425809D01*
X127734650Y-52425823D01*
X127646842Y-52637812D01*
X127646842Y-52637813D01*
X127589053Y-52853489D01*
X127587453Y-52859459D01*
X127587451Y-52859470D01*
X127557500Y-53086958D01*
X125557995Y-53086958D01*
X125528057Y-52859562D01*
X125468681Y-52637969D01*
X125380897Y-52426040D01*
X125380893Y-52426030D01*
X125266194Y-52227366D01*
X125209618Y-52153634D01*
X125209617Y-52153634D01*
X124598477Y-52764774D01*
X124507076Y-52627983D01*
X124381717Y-52502624D01*
X124244923Y-52411221D01*
X124856064Y-51800081D01*
X124856064Y-51800080D01*
X124782331Y-51743505D01*
X124782324Y-51743499D01*
X124583669Y-51628806D01*
X124583659Y-51628802D01*
X124371730Y-51541018D01*
X124150137Y-51481642D01*
X123922710Y-51451701D01*
X123922694Y-51451700D01*
X123693306Y-51451700D01*
X123693289Y-51451701D01*
X123465862Y-51481642D01*
X123244269Y-51541018D01*
X123032340Y-51628802D01*
X123032330Y-51628806D01*
X122833673Y-51743501D01*
X122833659Y-51743510D01*
X122759934Y-51800080D01*
X123371075Y-52411222D01*
X123234283Y-52502624D01*
X123108924Y-52627983D01*
X123017522Y-52764775D01*
X122406380Y-52153634D01*
X122349810Y-52227359D01*
X122349801Y-52227373D01*
X122235106Y-52426030D01*
X122235102Y-52426040D01*
X122147318Y-52637969D01*
X122087942Y-52859562D01*
X122058001Y-53086989D01*
X122058000Y-53087005D01*
X53744942Y-53087005D01*
X53745211Y-51743089D01*
X53745732Y-49138553D01*
X78377500Y-49138553D01*
X78377500Y-49296246D01*
X78408261Y-49450889D01*
X78408264Y-49450901D01*
X78468602Y-49596572D01*
X78468609Y-49596585D01*
X78556210Y-49727688D01*
X78556213Y-49727692D01*
X78667707Y-49839186D01*
X78667711Y-49839189D01*
X78798814Y-49926790D01*
X78798827Y-49926797D01*
X78944498Y-49987135D01*
X78944503Y-49987137D01*
X79099153Y-50017899D01*
X79099156Y-50017900D01*
X79099158Y-50017900D01*
X79256844Y-50017900D01*
X79256845Y-50017899D01*
X79411497Y-49987137D01*
X79557179Y-49926794D01*
X79688289Y-49839189D01*
X79799789Y-49727689D01*
X79887394Y-49596579D01*
X79947737Y-49450897D01*
X79978500Y-49296242D01*
X79978500Y-49138558D01*
X79978500Y-49138555D01*
X79978499Y-49138553D01*
X79969127Y-49091437D01*
X79947737Y-48983903D01*
X79930996Y-48943486D01*
X79887397Y-48838227D01*
X79887390Y-48838214D01*
X79799398Y-48706525D01*
X79778520Y-48639847D01*
X79778500Y-48637634D01*
X79778500Y-48081797D01*
X79798185Y-48014758D01*
X79814819Y-47994116D01*
X80070416Y-47738519D01*
X80131739Y-47705034D01*
X80158097Y-47702200D01*
X80447195Y-47702200D01*
X80514234Y-47721885D01*
X80559989Y-47774689D01*
X80569933Y-47843847D01*
X80550297Y-47895091D01*
X80518609Y-47942514D01*
X80518602Y-47942527D01*
X80458264Y-48088198D01*
X80458261Y-48088210D01*
X80427500Y-48242853D01*
X80427500Y-48400546D01*
X80458261Y-48555189D01*
X80458264Y-48555201D01*
X80518602Y-48700872D01*
X80518609Y-48700885D01*
X80606210Y-48831988D01*
X80606213Y-48831992D01*
X80717707Y-48943486D01*
X80717711Y-48943489D01*
X80848814Y-49031090D01*
X80848827Y-49031097D01*
X80994498Y-49091435D01*
X80994503Y-49091437D01*
X81059147Y-49104295D01*
X81149849Y-49122338D01*
X81211760Y-49154723D01*
X81213339Y-49156274D01*
X82723139Y-50666074D01*
X82723149Y-50666085D01*
X82727479Y-50670415D01*
X82727480Y-50670416D01*
X82839284Y-50782220D01*
X82926095Y-50832339D01*
X82926097Y-50832341D01*
X82964151Y-50854311D01*
X82976215Y-50861277D01*
X83128943Y-50902201D01*
X83128946Y-50902201D01*
X83294653Y-50902201D01*
X83294669Y-50902200D01*
X111321331Y-50902200D01*
X111321347Y-50902201D01*
X111328943Y-50902201D01*
X111487054Y-50902201D01*
X111487057Y-50902201D01*
X111639785Y-50861277D01*
X111689904Y-50832339D01*
X111776716Y-50782220D01*
X111888520Y-50670416D01*
X111888520Y-50670414D01*
X111898728Y-50660207D01*
X111898730Y-50660204D01*
X120183935Y-42374998D01*
X120245256Y-42341515D01*
X120314948Y-42346499D01*
X120370881Y-42388371D01*
X120395298Y-42453835D01*
X120394088Y-42482072D01*
X120392500Y-42492100D01*
X120392500Y-42492103D01*
X120392500Y-42691297D01*
X120423661Y-42888039D01*
X120423662Y-42888043D01*
X120424636Y-42892100D01*
X120421141Y-42961882D01*
X120391741Y-43008721D01*
X111805584Y-51594881D01*
X111744261Y-51628366D01*
X111717903Y-51631200D01*
X87193766Y-51631200D01*
X87126727Y-51611515D01*
X87124875Y-51610302D01*
X86993185Y-51522309D01*
X86993172Y-51522302D01*
X86847501Y-51461964D01*
X86847489Y-51461961D01*
X86692845Y-51431200D01*
X86692842Y-51431200D01*
X86535158Y-51431200D01*
X86535155Y-51431200D01*
X86380510Y-51461961D01*
X86380498Y-51461964D01*
X86234827Y-51522302D01*
X86234814Y-51522309D01*
X86103711Y-51609910D01*
X86103707Y-51609913D01*
X85992213Y-51721407D01*
X85992210Y-51721411D01*
X85904609Y-51852514D01*
X85904602Y-51852527D01*
X85844264Y-51998198D01*
X85844261Y-51998210D01*
X85813500Y-52152853D01*
X85813500Y-52310546D01*
X85844261Y-52465189D01*
X85844264Y-52465201D01*
X85904602Y-52610872D01*
X85904609Y-52610885D01*
X85992210Y-52741988D01*
X85992213Y-52741992D01*
X86103707Y-52853486D01*
X86103711Y-52853489D01*
X86234814Y-52941090D01*
X86234827Y-52941097D01*
X86300693Y-52968379D01*
X86380503Y-53001437D01*
X86535153Y-53032199D01*
X86535156Y-53032200D01*
X86535158Y-53032200D01*
X86692844Y-53032200D01*
X86692845Y-53032199D01*
X86847497Y-53001437D01*
X86878283Y-52988684D01*
X86927308Y-52968379D01*
X86993172Y-52941097D01*
X86993172Y-52941096D01*
X86993179Y-52941094D01*
X86996044Y-52939180D01*
X87124875Y-52853098D01*
X87191553Y-52832220D01*
X87193766Y-52832200D01*
X111931331Y-52832200D01*
X111931347Y-52832201D01*
X111938943Y-52832201D01*
X112097054Y-52832201D01*
X112097057Y-52832201D01*
X112249785Y-52791277D01*
X112299904Y-52762339D01*
X112386716Y-52712220D01*
X112498520Y-52600416D01*
X112498520Y-52600414D01*
X112508728Y-52590207D01*
X112508729Y-52590204D01*
X120183935Y-44914999D01*
X120245256Y-44881516D01*
X120314948Y-44886500D01*
X120370881Y-44928372D01*
X120395298Y-44993836D01*
X120394088Y-45022075D01*
X120392500Y-45032103D01*
X120392500Y-45231296D01*
X120423661Y-45428040D01*
X120423661Y-45428043D01*
X120485213Y-45617480D01*
X120575647Y-45794966D01*
X120692731Y-45956118D01*
X120833582Y-46096969D01*
X120994734Y-46214053D01*
X121172217Y-46304485D01*
X121172219Y-46304486D01*
X121361657Y-46366038D01*
X121361658Y-46366038D01*
X121361661Y-46366039D01*
X121558403Y-46397200D01*
X121558404Y-46397200D01*
X121757596Y-46397200D01*
X121757597Y-46397200D01*
X121954339Y-46366039D01*
X121954342Y-46366038D01*
X121954343Y-46366038D01*
X122143780Y-46304486D01*
X122143780Y-46304485D01*
X122143783Y-46304485D01*
X122321266Y-46214053D01*
X122482418Y-46096969D01*
X122623269Y-45956118D01*
X122740353Y-45794966D01*
X122830785Y-45617483D01*
X122845340Y-45572686D01*
X122892338Y-45428043D01*
X122892338Y-45428042D01*
X122892339Y-45428039D01*
X122923500Y-45231297D01*
X122923500Y-45032103D01*
X122892339Y-44835361D01*
X122892338Y-44835357D01*
X122892338Y-44835356D01*
X122830786Y-44645919D01*
X122740352Y-44468433D01*
X122623269Y-44307282D01*
X122482418Y-44166431D01*
X122321266Y-44049347D01*
X122169827Y-43972185D01*
X122119031Y-43924210D01*
X122102236Y-43856389D01*
X122124773Y-43790254D01*
X122169827Y-43751215D01*
X122179116Y-43746481D01*
X122321266Y-43674053D01*
X122482418Y-43556969D01*
X122623269Y-43416118D01*
X122740353Y-43254966D01*
X122830785Y-43077483D01*
X122892339Y-42888039D01*
X122923500Y-42691297D01*
X122923500Y-42492103D01*
X122892339Y-42295361D01*
X122892338Y-42295357D01*
X122892338Y-42295356D01*
X122830786Y-42105919D01*
X122740352Y-41928433D01*
X122623269Y-41767282D01*
X122482418Y-41626431D01*
X122321266Y-41509347D01*
X122169827Y-41432185D01*
X122119031Y-41384210D01*
X122102236Y-41316389D01*
X122124773Y-41250254D01*
X122169827Y-41211215D01*
X122179116Y-41206481D01*
X122321266Y-41134053D01*
X122482418Y-41016969D01*
X122623269Y-40876118D01*
X122740353Y-40714966D01*
X122830785Y-40537483D01*
X122891018Y-40352104D01*
X122892338Y-40348043D01*
X122892338Y-40348042D01*
X122892339Y-40348039D01*
X122923500Y-40151297D01*
X122923500Y-39952103D01*
X122892339Y-39755361D01*
X122892338Y-39755357D01*
X122892338Y-39755356D01*
X122830786Y-39565919D01*
X122740352Y-39388433D01*
X122623269Y-39227282D01*
X122482418Y-39086431D01*
X122321266Y-38969347D01*
X122169827Y-38892185D01*
X122119031Y-38844210D01*
X122102236Y-38776389D01*
X122124773Y-38710254D01*
X122169827Y-38671215D01*
X122179116Y-38666481D01*
X122321266Y-38594053D01*
X122482418Y-38476969D01*
X122623269Y-38336118D01*
X122740353Y-38174966D01*
X122830785Y-37997483D01*
X122891018Y-37812104D01*
X122892338Y-37808043D01*
X122892338Y-37808042D01*
X122892339Y-37808039D01*
X122923500Y-37611297D01*
X122923500Y-37412103D01*
X122892339Y-37215361D01*
X122892338Y-37215357D01*
X122892338Y-37215356D01*
X122830786Y-37025919D01*
X122740352Y-36848433D01*
X122623269Y-36687282D01*
X122482418Y-36546431D01*
X122321266Y-36429347D01*
X122169827Y-36352185D01*
X122119031Y-36304210D01*
X122102236Y-36236389D01*
X122124773Y-36170254D01*
X122169827Y-36131215D01*
X122179116Y-36126481D01*
X122321266Y-36054053D01*
X122482418Y-35936969D01*
X122623269Y-35796118D01*
X122740353Y-35634966D01*
X122830785Y-35457483D01*
X122830786Y-35457480D01*
X122892338Y-35268043D01*
X122892338Y-35268042D01*
X122892339Y-35268039D01*
X122923500Y-35071297D01*
X122923500Y-35063792D01*
X127457500Y-35063792D01*
X127457500Y-35519607D01*
X127493262Y-35974002D01*
X127493262Y-35974003D01*
X127525761Y-36179190D01*
X127564566Y-36424194D01*
X127670971Y-36867405D01*
X127811823Y-37300900D01*
X127811827Y-37300912D01*
X127857884Y-37412103D01*
X127986252Y-37722009D01*
X128193182Y-38128134D01*
X128193189Y-38128147D01*
X128193192Y-38128152D01*
X128431333Y-38516761D01*
X128431341Y-38516772D01*
X128694452Y-38878915D01*
X128699255Y-38885525D01*
X128995276Y-39232121D01*
X129317579Y-39554424D01*
X129664175Y-39850445D01*
X130032929Y-40118360D01*
X130032933Y-40118362D01*
X130032938Y-40118366D01*
X130421547Y-40356507D01*
X130421552Y-40356510D01*
X130421557Y-40356512D01*
X130421566Y-40356518D01*
X130827691Y-40563448D01*
X131248799Y-40737877D01*
X131682295Y-40878729D01*
X132125506Y-40985134D01*
X132575698Y-41056438D01*
X133030098Y-41092200D01*
X133030106Y-41092200D01*
X133485894Y-41092200D01*
X133485902Y-41092200D01*
X133940302Y-41056438D01*
X134390494Y-40985134D01*
X134833705Y-40878729D01*
X135267201Y-40737877D01*
X135688309Y-40563448D01*
X136094434Y-40356518D01*
X136483071Y-40118360D01*
X136851825Y-39850445D01*
X137198421Y-39554424D01*
X137520724Y-39232121D01*
X137816745Y-38885525D01*
X138084660Y-38516771D01*
X138322818Y-38128134D01*
X138529748Y-37722009D01*
X138704177Y-37300901D01*
X138845029Y-36867405D01*
X138951434Y-36424194D01*
X139022738Y-35974002D01*
X139058500Y-35519602D01*
X139058500Y-35063798D01*
X139022738Y-34609398D01*
X138951434Y-34159206D01*
X138845029Y-33715995D01*
X138704177Y-33282499D01*
X138529748Y-32861391D01*
X138322818Y-32455266D01*
X138322812Y-32455257D01*
X138322810Y-32455252D01*
X138322807Y-32455247D01*
X138084666Y-32066638D01*
X138084662Y-32066633D01*
X138084660Y-32066629D01*
X137816745Y-31697875D01*
X137520724Y-31351279D01*
X137198421Y-31028976D01*
X137046275Y-30899031D01*
X136851831Y-30732960D01*
X136851817Y-30732949D01*
X136483072Y-30465041D01*
X136483061Y-30465033D01*
X136094452Y-30226892D01*
X136094447Y-30226889D01*
X136094437Y-30226884D01*
X136094434Y-30226882D01*
X135688309Y-30019952D01*
X135560426Y-29966981D01*
X135267212Y-29845527D01*
X135267205Y-29845524D01*
X135267201Y-29845523D01*
X134833705Y-29704671D01*
X134390494Y-29598266D01*
X133940302Y-29526962D01*
X133485907Y-29491200D01*
X133485902Y-29491200D01*
X133030098Y-29491200D01*
X133030092Y-29491200D01*
X132575697Y-29526962D01*
X132575696Y-29526962D01*
X132125511Y-29598265D01*
X132125508Y-29598265D01*
X132125506Y-29598266D01*
X131966784Y-29636371D01*
X131682306Y-29704668D01*
X131682301Y-29704669D01*
X131682295Y-29704671D01*
X131248799Y-29845523D01*
X131248787Y-29845527D01*
X130827693Y-30019951D01*
X130421552Y-30226889D01*
X130421547Y-30226892D01*
X130032938Y-30465033D01*
X130032927Y-30465041D01*
X129664182Y-30732949D01*
X129664168Y-30732960D01*
X129317585Y-31028970D01*
X129317571Y-31028983D01*
X128995283Y-31351271D01*
X128995270Y-31351285D01*
X128699260Y-31697868D01*
X128699249Y-31697882D01*
X128431341Y-32066627D01*
X128431333Y-32066638D01*
X128193192Y-32455247D01*
X128193189Y-32455252D01*
X127986251Y-32861393D01*
X127811827Y-33282487D01*
X127811823Y-33282499D01*
X127670971Y-33715995D01*
X127670969Y-33716001D01*
X127670968Y-33716006D01*
X127627727Y-33896119D01*
X127567430Y-34147279D01*
X127564565Y-34159211D01*
X127493262Y-34609396D01*
X127493262Y-34609397D01*
X127457500Y-35063792D01*
X122923500Y-35063792D01*
X122923500Y-34872103D01*
X122892339Y-34675361D01*
X122892338Y-34675357D01*
X122892338Y-34675356D01*
X122830786Y-34485919D01*
X122740352Y-34308433D01*
X122623269Y-34147282D01*
X122482418Y-34006431D01*
X122321266Y-33889347D01*
X122314258Y-33885776D01*
X122169277Y-33811904D01*
X122118481Y-33763929D01*
X122101686Y-33696108D01*
X122124224Y-33629973D01*
X122169277Y-33590934D01*
X122321005Y-33513624D01*
X122358863Y-33486118D01*
X122358863Y-33486117D01*
X121795574Y-32922828D01*
X121854853Y-32906945D01*
X121971147Y-32839802D01*
X122066102Y-32744847D01*
X122133245Y-32628553D01*
X122149128Y-32569274D01*
X122712417Y-33132563D01*
X122712418Y-33132563D01*
X122739924Y-33094705D01*
X122830320Y-32917294D01*
X122891852Y-32727922D01*
X122923000Y-32531263D01*
X122923000Y-32332136D01*
X122891852Y-32135477D01*
X122830320Y-31946105D01*
X122739924Y-31768694D01*
X122712417Y-31730835D01*
X122712417Y-31730834D01*
X122149128Y-32294124D01*
X122133245Y-32234847D01*
X122066102Y-32118553D01*
X121971147Y-32023598D01*
X121854853Y-31956455D01*
X121795574Y-31940571D01*
X122358864Y-31377281D01*
X122358863Y-31377280D01*
X122321008Y-31349777D01*
X122169277Y-31272465D01*
X122118481Y-31224490D01*
X122101686Y-31156669D01*
X122124224Y-31090534D01*
X122169277Y-31051495D01*
X122321266Y-30974053D01*
X122482418Y-30856969D01*
X122623269Y-30716118D01*
X122740353Y-30554966D01*
X122830785Y-30377483D01*
X122830786Y-30377480D01*
X122892338Y-30188043D01*
X122892338Y-30188042D01*
X122892339Y-30188039D01*
X122923500Y-29991297D01*
X122923500Y-29792103D01*
X122892339Y-29595361D01*
X122892338Y-29595357D01*
X122892338Y-29595356D01*
X122830786Y-29405919D01*
X122760424Y-29267826D01*
X122740353Y-29228434D01*
X122623269Y-29067282D01*
X122482418Y-28926431D01*
X122321266Y-28809347D01*
X122242379Y-28769152D01*
X122143780Y-28718913D01*
X121954342Y-28657361D01*
X121806782Y-28633990D01*
X121757597Y-28626200D01*
X121558403Y-28626200D01*
X121492822Y-28636587D01*
X121361659Y-28657361D01*
X121361656Y-28657361D01*
X121172219Y-28718913D01*
X120994733Y-28809347D01*
X120902790Y-28876147D01*
X120833582Y-28926431D01*
X120833580Y-28926433D01*
X120833579Y-28926433D01*
X120692733Y-29067279D01*
X120692733Y-29067280D01*
X120692731Y-29067282D01*
X120682372Y-29081540D01*
X120575647Y-29228433D01*
X120485213Y-29405919D01*
X120423661Y-29595356D01*
X120423661Y-29595359D01*
X120392500Y-29792103D01*
X120392500Y-29991296D01*
X120423661Y-30188040D01*
X120423661Y-30188043D01*
X120485213Y-30377480D01*
X120485215Y-30377483D01*
X120575647Y-30554966D01*
X120692731Y-30716118D01*
X120833582Y-30856969D01*
X120994734Y-30974053D01*
X121073613Y-31014244D01*
X121146722Y-31051495D01*
X121197518Y-31099470D01*
X121214313Y-31167291D01*
X121191776Y-31233426D01*
X121146723Y-31272464D01*
X120994993Y-31349775D01*
X120957135Y-31377280D01*
X120957135Y-31377281D01*
X121520425Y-31940571D01*
X121461147Y-31956455D01*
X121344853Y-32023598D01*
X121249898Y-32118553D01*
X121182755Y-32234847D01*
X121166871Y-32294125D01*
X120603581Y-31730835D01*
X120603580Y-31730835D01*
X120576077Y-31768690D01*
X120485679Y-31946105D01*
X120424147Y-32135477D01*
X120393000Y-32332136D01*
X120393000Y-32531263D01*
X120424147Y-32727922D01*
X120485679Y-32917294D01*
X120576077Y-33094708D01*
X120603580Y-33132563D01*
X120603581Y-33132564D01*
X121166871Y-32569274D01*
X121182755Y-32628553D01*
X121249898Y-32744847D01*
X121344853Y-32839802D01*
X121461147Y-32906945D01*
X121520425Y-32922828D01*
X120957134Y-33486117D01*
X120994994Y-33513624D01*
X121146722Y-33590934D01*
X121197518Y-33638909D01*
X121214313Y-33706730D01*
X121191776Y-33772865D01*
X121146723Y-33811903D01*
X120994735Y-33889345D01*
X120881997Y-33971255D01*
X120833582Y-34006431D01*
X120833580Y-34006433D01*
X120833579Y-34006433D01*
X120692733Y-34147279D01*
X120692733Y-34147280D01*
X120692731Y-34147282D01*
X120648499Y-34208162D01*
X120575647Y-34308433D01*
X120485213Y-34485919D01*
X120423661Y-34675356D01*
X120423661Y-34675359D01*
X120392500Y-34872103D01*
X120392500Y-35071296D01*
X120423661Y-35268040D01*
X120423661Y-35268043D01*
X120485213Y-35457480D01*
X120575647Y-35634966D01*
X120692731Y-35796118D01*
X120833582Y-35936969D01*
X120994734Y-36054053D01*
X121064453Y-36089577D01*
X121146172Y-36131215D01*
X121196968Y-36179190D01*
X121213763Y-36247011D01*
X121191225Y-36313146D01*
X121146172Y-36352185D01*
X120994733Y-36429347D01*
X120902790Y-36496147D01*
X120833582Y-36546431D01*
X120833580Y-36546433D01*
X120833579Y-36546433D01*
X120692733Y-36687279D01*
X120692733Y-36687280D01*
X120692731Y-36687282D01*
X120642447Y-36756490D01*
X120575647Y-36848433D01*
X120485213Y-37025919D01*
X120423661Y-37215356D01*
X120423661Y-37215359D01*
X120392500Y-37412103D01*
X120392500Y-37611296D01*
X120423661Y-37808044D01*
X120424636Y-37812104D01*
X120421140Y-37881886D01*
X120391741Y-37928722D01*
X110895584Y-47424881D01*
X110834261Y-47458366D01*
X110807903Y-47461200D01*
X93206097Y-47461200D01*
X93139058Y-47441515D01*
X93118416Y-47424881D01*
X92433590Y-46740055D01*
X92433588Y-46740052D01*
X92314717Y-46621181D01*
X92314716Y-46621180D01*
X92227904Y-46571060D01*
X92227904Y-46571059D01*
X92227900Y-46571058D01*
X92177785Y-46542123D01*
X92025057Y-46501199D01*
X91866943Y-46501199D01*
X91859347Y-46501199D01*
X91859331Y-46501200D01*
X79937057Y-46501200D01*
X79778942Y-46501200D01*
X79626215Y-46542123D01*
X79626214Y-46542123D01*
X79626212Y-46542124D01*
X79626209Y-46542125D01*
X79576096Y-46571059D01*
X79576095Y-46571060D01*
X79532689Y-46596120D01*
X79489285Y-46621179D01*
X79489282Y-46621181D01*
X78697479Y-47412984D01*
X78690611Y-47424881D01*
X78669643Y-47461200D01*
X78618423Y-47549915D01*
X78577499Y-47702643D01*
X78577499Y-47702645D01*
X78577499Y-47870746D01*
X78577500Y-47870759D01*
X78577500Y-48637634D01*
X78557815Y-48704673D01*
X78556602Y-48706525D01*
X78468609Y-48838214D01*
X78468602Y-48838227D01*
X78408264Y-48983898D01*
X78408261Y-48983910D01*
X78377500Y-49138553D01*
X53745732Y-49138553D01*
X53748486Y-35367641D01*
X53748500Y-35367592D01*
X53748500Y-35303624D01*
X53748561Y-35299758D01*
X53749142Y-35281284D01*
X53755977Y-35063792D01*
X57447500Y-35063792D01*
X57447500Y-35519607D01*
X57483262Y-35974002D01*
X57483262Y-35974003D01*
X57515761Y-36179190D01*
X57554566Y-36424194D01*
X57660971Y-36867405D01*
X57801823Y-37300900D01*
X57801827Y-37300912D01*
X57847884Y-37412103D01*
X57976252Y-37722009D01*
X58183182Y-38128134D01*
X58183189Y-38128147D01*
X58183192Y-38128152D01*
X58421333Y-38516761D01*
X58421341Y-38516772D01*
X58684452Y-38878915D01*
X58689255Y-38885525D01*
X58985276Y-39232121D01*
X59307579Y-39554424D01*
X59654175Y-39850445D01*
X60022929Y-40118360D01*
X60022933Y-40118362D01*
X60022938Y-40118366D01*
X60411547Y-40356507D01*
X60411552Y-40356510D01*
X60411557Y-40356512D01*
X60411566Y-40356518D01*
X60817691Y-40563448D01*
X61238799Y-40737877D01*
X61672295Y-40878729D01*
X62115506Y-40985134D01*
X62565698Y-41056438D01*
X63020098Y-41092200D01*
X63020106Y-41092200D01*
X63475894Y-41092200D01*
X63475902Y-41092200D01*
X63930302Y-41056438D01*
X64380494Y-40985134D01*
X64823705Y-40878729D01*
X65257201Y-40737877D01*
X65678309Y-40563448D01*
X66084434Y-40356518D01*
X66473071Y-40118360D01*
X66841825Y-39850445D01*
X67188421Y-39554424D01*
X67510724Y-39232121D01*
X67806745Y-38885525D01*
X68074660Y-38516771D01*
X68312818Y-38128134D01*
X68519748Y-37722009D01*
X68694177Y-37300901D01*
X68835029Y-36867405D01*
X68941434Y-36424194D01*
X69012738Y-35974002D01*
X69048500Y-35519602D01*
X69048500Y-35063798D01*
X69012738Y-34609398D01*
X68941434Y-34159206D01*
X68835029Y-33715995D01*
X68694177Y-33282499D01*
X68627105Y-33120572D01*
X71737500Y-33120572D01*
X71737500Y-33382827D01*
X71755528Y-33519752D01*
X71771730Y-33642816D01*
X71839602Y-33896118D01*
X71839605Y-33896128D01*
X71939953Y-34138390D01*
X71939958Y-34138400D01*
X72071075Y-34365503D01*
X72230718Y-34573551D01*
X72230726Y-34573560D01*
X72416140Y-34758974D01*
X72416148Y-34758981D01*
X72624196Y-34918624D01*
X72851299Y-35049741D01*
X72851309Y-35049746D01*
X73093571Y-35150094D01*
X73093581Y-35150098D01*
X73346884Y-35217970D01*
X73606880Y-35252200D01*
X73606887Y-35252200D01*
X73869113Y-35252200D01*
X73869120Y-35252200D01*
X74129116Y-35217970D01*
X74382419Y-35150098D01*
X74572664Y-35071296D01*
X74624690Y-35049746D01*
X74624691Y-35049745D01*
X74624697Y-35049743D01*
X74851803Y-34918624D01*
X75059851Y-34758982D01*
X75059855Y-34758977D01*
X75059860Y-34758974D01*
X75245274Y-34573560D01*
X75245277Y-34573555D01*
X75245282Y-34573551D01*
X75404924Y-34365503D01*
X75536043Y-34138397D01*
X75636398Y-33896119D01*
X75704270Y-33642816D01*
X75738500Y-33382820D01*
X75738500Y-33120580D01*
X75704270Y-32860584D01*
X75636398Y-32607281D01*
X75636394Y-32607271D01*
X75536046Y-32365009D01*
X75536041Y-32364999D01*
X75404924Y-32137896D01*
X75245281Y-31929848D01*
X75245274Y-31929840D01*
X75059860Y-31744426D01*
X75059851Y-31744418D01*
X74851803Y-31584775D01*
X74624700Y-31453658D01*
X74624690Y-31453653D01*
X74382428Y-31353305D01*
X74382421Y-31353303D01*
X74382419Y-31353302D01*
X74129116Y-31285430D01*
X74071339Y-31277823D01*
X73869127Y-31251200D01*
X73869120Y-31251200D01*
X73606880Y-31251200D01*
X73606872Y-31251200D01*
X73375772Y-31281626D01*
X73346884Y-31285430D01*
X73194776Y-31326187D01*
X73093581Y-31353302D01*
X73093571Y-31353305D01*
X72851309Y-31453653D01*
X72851299Y-31453658D01*
X72624196Y-31584775D01*
X72416148Y-31744418D01*
X72230718Y-31929848D01*
X72071075Y-32137896D01*
X71939958Y-32364999D01*
X71939953Y-32365009D01*
X71839605Y-32607271D01*
X71839602Y-32607281D01*
X71771730Y-32860584D01*
X71767926Y-32889472D01*
X71737500Y-33120572D01*
X68627105Y-33120572D01*
X68519748Y-32861391D01*
X68312818Y-32455266D01*
X68312812Y-32455257D01*
X68312810Y-32455252D01*
X68312807Y-32455247D01*
X68074666Y-32066638D01*
X68074662Y-32066633D01*
X68074660Y-32066629D01*
X67806745Y-31697875D01*
X67510724Y-31351279D01*
X67188421Y-31028976D01*
X67036275Y-30899031D01*
X66841831Y-30732960D01*
X66841817Y-30732949D01*
X66473072Y-30465041D01*
X66473061Y-30465033D01*
X66084452Y-30226892D01*
X66084447Y-30226889D01*
X66084437Y-30226884D01*
X66084434Y-30226882D01*
X65678309Y-30019952D01*
X65550426Y-29966981D01*
X65257212Y-29845527D01*
X65257205Y-29845524D01*
X65257201Y-29845523D01*
X64823705Y-29704671D01*
X64380494Y-29598266D01*
X63930302Y-29526962D01*
X63475907Y-29491200D01*
X63475902Y-29491200D01*
X63020098Y-29491200D01*
X63020092Y-29491200D01*
X62565697Y-29526962D01*
X62565696Y-29526962D01*
X62115511Y-29598265D01*
X62115508Y-29598265D01*
X62115506Y-29598266D01*
X61956784Y-29636371D01*
X61672306Y-29704668D01*
X61672301Y-29704669D01*
X61672295Y-29704671D01*
X61238799Y-29845523D01*
X61238787Y-29845527D01*
X60817693Y-30019951D01*
X60411552Y-30226889D01*
X60411547Y-30226892D01*
X60022938Y-30465033D01*
X60022927Y-30465041D01*
X59654182Y-30732949D01*
X59654168Y-30732960D01*
X59307585Y-31028970D01*
X59307571Y-31028983D01*
X58985283Y-31351271D01*
X58985270Y-31351285D01*
X58689260Y-31697868D01*
X58689249Y-31697882D01*
X58421341Y-32066627D01*
X58421333Y-32066638D01*
X58183192Y-32455247D01*
X58183189Y-32455252D01*
X57976251Y-32861393D01*
X57801827Y-33282487D01*
X57801823Y-33282499D01*
X57660971Y-33715995D01*
X57660969Y-33716001D01*
X57660968Y-33716006D01*
X57617727Y-33896119D01*
X57557430Y-34147279D01*
X57554565Y-34159211D01*
X57483262Y-34609396D01*
X57483262Y-34609397D01*
X57447500Y-35063792D01*
X53755977Y-35063792D01*
X53767103Y-34709729D01*
X53767589Y-34701989D01*
X53822963Y-34116202D01*
X53823936Y-34108505D01*
X53915977Y-33527379D01*
X53917427Y-33519777D01*
X54045786Y-32945529D01*
X54047715Y-32938021D01*
X54211863Y-32373018D01*
X54214267Y-32365622D01*
X54296253Y-32137897D01*
X54413567Y-31812043D01*
X54416423Y-31804830D01*
X54650102Y-31264829D01*
X54653405Y-31257808D01*
X54920527Y-30733554D01*
X54924267Y-30726752D01*
X55223776Y-30220309D01*
X55227931Y-30213762D01*
X55558653Y-29727119D01*
X55563203Y-29720856D01*
X55923842Y-29255924D01*
X55928770Y-29249966D01*
X56317897Y-28808587D01*
X56323199Y-28802942D01*
X56739242Y-28386899D01*
X56744887Y-28381597D01*
X57186266Y-27992470D01*
X57192224Y-27987542D01*
X57657156Y-27626903D01*
X57663419Y-27622353D01*
X58150062Y-27291631D01*
X58156609Y-27287476D01*
X58663052Y-26987967D01*
X58669854Y-26984227D01*
X59194108Y-26717105D01*
X59201129Y-26713802D01*
X59741130Y-26480123D01*
X59748343Y-26477267D01*
X60301923Y-26277966D01*
X60309318Y-26275563D01*
X60874321Y-26111415D01*
X60881829Y-26109486D01*
X61456077Y-25981127D01*
X61463679Y-25979677D01*
X62044805Y-25887636D01*
X62052502Y-25886663D01*
X62638289Y-25831289D01*
X62646029Y-25830803D01*
X63236022Y-25812261D01*
X63239951Y-25812201D01*
X76544110Y-25821751D01*
G37*
%TD.AperFunction*%
%TD*%
M02*
