%TF.GenerationSoftware,KiCad,Pcbnew,9.0.7-9.0.7~ubuntu24.04.1*%
%TF.CreationDate,2026-04-13T21:17:49+05:30*%
%TF.ProjectId,OW_SUB_SEED_SCH,4f575f53-5542-45f5-9345-45445f534348,rev?*%
%TF.SameCoordinates,Original*%
%TF.FileFunction,Legend,Top*%
%TF.FilePolarity,Positive*%
%FSLAX46Y46*%
G04 Gerber Fmt 4.6, Leading zero omitted, Abs format (unit mm)*
G04 Created by KiCad (PCBNEW 9.0.7-9.0.7~ubuntu24.04.1) date 2026-04-13 21:17:49*
%MOMM*%
%LPD*%
G01*
G04 APERTURE LIST*
%ADD10C,0.150000*%
%ADD11C,0.100000*%
%ADD12C,0.120000*%
%ADD13C,0.127000*%
%ADD14C,0.200000*%
G04 APERTURE END LIST*
D10*
X62486095Y-29446519D02*
X62486095Y-28446519D01*
X62486095Y-28922709D02*
X63057523Y-28922709D01*
X63057523Y-29446519D02*
X63057523Y-28446519D01*
X64057523Y-29446519D02*
X63486095Y-29446519D01*
X63771809Y-29446519D02*
X63771809Y-28446519D01*
X63771809Y-28446519D02*
X63676571Y-28589376D01*
X63676571Y-28589376D02*
X63581333Y-28684614D01*
X63581333Y-28684614D02*
X63486095Y-28732233D01*
X131172819Y-65513604D02*
X131982342Y-65513604D01*
X131982342Y-65513604D02*
X132077580Y-65465985D01*
X132077580Y-65465985D02*
X132125200Y-65418366D01*
X132125200Y-65418366D02*
X132172819Y-65323128D01*
X132172819Y-65323128D02*
X132172819Y-65132652D01*
X132172819Y-65132652D02*
X132125200Y-65037414D01*
X132125200Y-65037414D02*
X132077580Y-64989795D01*
X132077580Y-64989795D02*
X131982342Y-64942176D01*
X131982342Y-64942176D02*
X131172819Y-64942176D01*
X131268057Y-64513604D02*
X131220438Y-64465985D01*
X131220438Y-64465985D02*
X131172819Y-64370747D01*
X131172819Y-64370747D02*
X131172819Y-64132652D01*
X131172819Y-64132652D02*
X131220438Y-64037414D01*
X131220438Y-64037414D02*
X131268057Y-63989795D01*
X131268057Y-63989795D02*
X131363295Y-63942176D01*
X131363295Y-63942176D02*
X131458533Y-63942176D01*
X131458533Y-63942176D02*
X131601390Y-63989795D01*
X131601390Y-63989795D02*
X132172819Y-64561223D01*
X132172819Y-64561223D02*
X132172819Y-63942176D01*
X129672700Y-76153128D02*
X129672700Y-75010271D01*
X129672700Y-65153128D02*
X129672700Y-64010271D01*
X130244128Y-64581699D02*
X129101271Y-64581699D01*
X62476095Y-79456519D02*
X62476095Y-78456519D01*
X62476095Y-78932709D02*
X63047523Y-78932709D01*
X63047523Y-79456519D02*
X63047523Y-78456519D01*
X63952285Y-78789852D02*
X63952285Y-79456519D01*
X63714190Y-78408900D02*
X63476095Y-79123185D01*
X63476095Y-79123185D02*
X64095142Y-79123185D01*
D11*
X113216095Y-79709119D02*
X113216095Y-80518642D01*
X113216095Y-80518642D02*
X113263714Y-80613880D01*
X113263714Y-80613880D02*
X113311333Y-80661500D01*
X113311333Y-80661500D02*
X113406571Y-80709119D01*
X113406571Y-80709119D02*
X113597047Y-80709119D01*
X113597047Y-80709119D02*
X113692285Y-80661500D01*
X113692285Y-80661500D02*
X113739904Y-80613880D01*
X113739904Y-80613880D02*
X113787523Y-80518642D01*
X113787523Y-80518642D02*
X113787523Y-79709119D01*
X114739904Y-79709119D02*
X114263714Y-79709119D01*
X114263714Y-79709119D02*
X114216095Y-80185309D01*
X114216095Y-80185309D02*
X114263714Y-80137690D01*
X114263714Y-80137690D02*
X114358952Y-80090071D01*
X114358952Y-80090071D02*
X114597047Y-80090071D01*
X114597047Y-80090071D02*
X114692285Y-80137690D01*
X114692285Y-80137690D02*
X114739904Y-80185309D01*
X114739904Y-80185309D02*
X114787523Y-80280547D01*
X114787523Y-80280547D02*
X114787523Y-80518642D01*
X114787523Y-80518642D02*
X114739904Y-80613880D01*
X114739904Y-80613880D02*
X114692285Y-80661500D01*
X114692285Y-80661500D02*
X114597047Y-80709119D01*
X114597047Y-80709119D02*
X114358952Y-80709119D01*
X114358952Y-80709119D02*
X114263714Y-80661500D01*
X114263714Y-80661500D02*
X114216095Y-80613880D01*
D10*
X113276095Y-36966519D02*
X113276095Y-37776042D01*
X113276095Y-37776042D02*
X113323714Y-37871280D01*
X113323714Y-37871280D02*
X113371333Y-37918900D01*
X113371333Y-37918900D02*
X113466571Y-37966519D01*
X113466571Y-37966519D02*
X113657047Y-37966519D01*
X113657047Y-37966519D02*
X113752285Y-37918900D01*
X113752285Y-37918900D02*
X113799904Y-37871280D01*
X113799904Y-37871280D02*
X113847523Y-37776042D01*
X113847523Y-37776042D02*
X113847523Y-36966519D01*
X114228476Y-36966519D02*
X114847523Y-36966519D01*
X114847523Y-36966519D02*
X114514190Y-37347471D01*
X114514190Y-37347471D02*
X114657047Y-37347471D01*
X114657047Y-37347471D02*
X114752285Y-37395090D01*
X114752285Y-37395090D02*
X114799904Y-37442709D01*
X114799904Y-37442709D02*
X114847523Y-37537947D01*
X114847523Y-37537947D02*
X114847523Y-37776042D01*
X114847523Y-37776042D02*
X114799904Y-37871280D01*
X114799904Y-37871280D02*
X114752285Y-37918900D01*
X114752285Y-37918900D02*
X114657047Y-37966519D01*
X114657047Y-37966519D02*
X114371333Y-37966519D01*
X114371333Y-37966519D02*
X114276095Y-37918900D01*
X114276095Y-37918900D02*
X114228476Y-37871280D01*
D11*
X125829904Y-55674280D02*
X125829904Y-54864757D01*
X125829904Y-54864757D02*
X125782285Y-54769519D01*
X125782285Y-54769519D02*
X125734666Y-54721900D01*
X125734666Y-54721900D02*
X125639428Y-54674280D01*
X125639428Y-54674280D02*
X125448952Y-54674280D01*
X125448952Y-54674280D02*
X125353714Y-54721900D01*
X125353714Y-54721900D02*
X125306095Y-54769519D01*
X125306095Y-54769519D02*
X125258476Y-54864757D01*
X125258476Y-54864757D02*
X125258476Y-55674280D01*
X124353714Y-55340947D02*
X124353714Y-54674280D01*
X124591809Y-55721900D02*
X124829904Y-55007614D01*
X124829904Y-55007614D02*
X124210857Y-55007614D01*
D10*
X132506095Y-79426519D02*
X132506095Y-78426519D01*
X132506095Y-78902709D02*
X133077523Y-78902709D01*
X133077523Y-79426519D02*
X133077523Y-78426519D01*
X133458476Y-78426519D02*
X134077523Y-78426519D01*
X134077523Y-78426519D02*
X133744190Y-78807471D01*
X133744190Y-78807471D02*
X133887047Y-78807471D01*
X133887047Y-78807471D02*
X133982285Y-78855090D01*
X133982285Y-78855090D02*
X134029904Y-78902709D01*
X134029904Y-78902709D02*
X134077523Y-78997947D01*
X134077523Y-78997947D02*
X134077523Y-79236042D01*
X134077523Y-79236042D02*
X134029904Y-79331280D01*
X134029904Y-79331280D02*
X133982285Y-79378900D01*
X133982285Y-79378900D02*
X133887047Y-79426519D01*
X133887047Y-79426519D02*
X133601333Y-79426519D01*
X133601333Y-79426519D02*
X133506095Y-79378900D01*
X133506095Y-79378900D02*
X133458476Y-79331280D01*
D11*
X95005419Y-41353604D02*
X95814942Y-41353604D01*
X95814942Y-41353604D02*
X95910180Y-41305985D01*
X95910180Y-41305985D02*
X95957800Y-41258366D01*
X95957800Y-41258366D02*
X96005419Y-41163128D01*
X96005419Y-41163128D02*
X96005419Y-40972652D01*
X96005419Y-40972652D02*
X95957800Y-40877414D01*
X95957800Y-40877414D02*
X95910180Y-40829795D01*
X95910180Y-40829795D02*
X95814942Y-40782176D01*
X95814942Y-40782176D02*
X95005419Y-40782176D01*
X96005419Y-39782176D02*
X96005419Y-40353604D01*
X96005419Y-40067890D02*
X95005419Y-40067890D01*
X95005419Y-40067890D02*
X95148276Y-40163128D01*
X95148276Y-40163128D02*
X95243514Y-40258366D01*
X95243514Y-40258366D02*
X95291133Y-40353604D01*
D10*
X132496095Y-29446519D02*
X132496095Y-28446519D01*
X132496095Y-28922709D02*
X133067523Y-28922709D01*
X133067523Y-29446519D02*
X133067523Y-28446519D01*
X133496095Y-28541757D02*
X133543714Y-28494138D01*
X133543714Y-28494138D02*
X133638952Y-28446519D01*
X133638952Y-28446519D02*
X133877047Y-28446519D01*
X133877047Y-28446519D02*
X133972285Y-28494138D01*
X133972285Y-28494138D02*
X134019904Y-28541757D01*
X134019904Y-28541757D02*
X134067523Y-28636995D01*
X134067523Y-28636995D02*
X134067523Y-28732233D01*
X134067523Y-28732233D02*
X134019904Y-28875090D01*
X134019904Y-28875090D02*
X133448476Y-29446519D01*
X133448476Y-29446519D02*
X134067523Y-29446519D01*
D12*
%TO.C,U2*%
X133548000Y-65021700D02*
X133548000Y-75141700D01*
X138448000Y-64431700D02*
X138448000Y-65021700D01*
X138448000Y-65021700D02*
X133548000Y-65021700D01*
X138448000Y-75141700D02*
X133548000Y-75141700D01*
X138448000Y-75141700D02*
X138448000Y-75731700D01*
X140668000Y-64431700D02*
X140668000Y-65021700D01*
X140668000Y-75141700D02*
X140668000Y-75731700D01*
X142768000Y-65021700D02*
X140668000Y-65021700D01*
X142768000Y-65021700D02*
X142768000Y-75141700D01*
X142768000Y-75141700D02*
X140668000Y-75141700D01*
X138448000Y-64431700D02*
G75*
G02*
X140668000Y-64431700I1110000J0D01*
G01*
X140668000Y-75731700D02*
G75*
G02*
X138448000Y-75731700I-1110000J0D01*
G01*
%TO.C,U5*%
D11*
X106968000Y-61761700D02*
X119668000Y-61761700D01*
X119668000Y-82081700D01*
X106968000Y-82081700D01*
X106968000Y-61761700D01*
D13*
%TO.C,U3*%
X105138000Y-27011700D02*
X105138000Y-48011700D01*
X105138000Y-48011700D02*
X122938000Y-48011700D01*
X122938000Y-27011700D02*
X105138000Y-27011700D01*
X122938000Y-48011700D02*
X122938000Y-27011700D01*
D14*
X104438000Y-29891700D02*
G75*
G02*
X104238000Y-29891700I-100000J0D01*
G01*
X104238000Y-29891700D02*
G75*
G02*
X104438000Y-29891700I100000J0D01*
G01*
D11*
%TO.C,U4*%
X130608000Y-55301700D02*
X130608000Y-50501700D01*
X122408000Y-60101700D02*
X130208000Y-60101700D01*
X130208000Y-50501700D01*
X122408000Y-50501700D01*
X122408000Y-60101700D01*
X130208000Y-60101700D02*
X143008000Y-60101700D01*
X143008000Y-50501700D01*
X130208000Y-50501700D01*
X130208000Y-60101700D01*
%TO.C,U1*%
X71238000Y-84351700D02*
X99238000Y-84351700D01*
X99238000Y-29351700D01*
X71238000Y-29351700D01*
X71238000Y-84351700D01*
X77238000Y-29391700D02*
X92238000Y-29391700D01*
X92238000Y-25391700D01*
X77238000Y-25391700D01*
X77238000Y-29391700D01*
%TD*%
M02*
