%TF.GenerationSoftware,KiCad,Pcbnew,9.0.7-9.0.7~ubuntu24.04.1*%
%TF.CreationDate,2026-04-13T21:17:49+05:30*%
%TF.ProjectId,OW_SUB_SEED_SCH,4f575f53-5542-45f5-9345-45445f534348,rev?*%
%TF.SameCoordinates,Original*%
%TF.FileFunction,Soldermask,Top*%
%TF.FilePolarity,Negative*%
%FSLAX46Y46*%
G04 Gerber Fmt 4.6, Leading zero omitted, Abs format (unit mm)*
G04 Created by KiCad (PCBNEW 9.0.7-9.0.7~ubuntu24.04.1) date 2026-04-13 21:17:49*
%MOMM*%
%LPD*%
G01*
G04 APERTURE LIST*
G04 Aperture macros list*
%AMRoundRect*
0 Rectangle with rounded corners*
0 $1 Rounding radius*
0 $2 $3 $4 $5 $6 $7 $8 $9 X,Y pos of 4 corners*
0 Add a 4 corners polygon primitive as box body*
4,1,4,$2,$3,$4,$5,$6,$7,$8,$9,$2,$3,0*
0 Add four circle primitives for the rounded corners*
1,1,$1+$1,$2,$3*
1,1,$1+$1,$4,$5*
1,1,$1+$1,$6,$7*
1,1,$1+$1,$8,$9*
0 Add four rect primitives between the rounded corners*
20,1,$1+$1,$2,$3,$4,$5,0*
20,1,$1+$1,$4,$5,$6,$7,0*
20,1,$1+$1,$6,$7,$8,$9,0*
20,1,$1+$1,$8,$9,$2,$3,0*%
G04 Aperture macros list end*
%ADD10C,5.700000*%
%ADD11C,10.600000*%
%ADD12C,1.400000*%
%ADD13RoundRect,0.770000X-0.980000X0.980000X-0.980000X-0.980000X0.980000X-0.980000X0.980000X0.980000X0*%
%ADD14C,3.500000*%
%ADD15R,2.000000X2.000000*%
%ADD16C,2.000000*%
%ADD17RoundRect,0.102000X-0.765000X-0.765000X0.765000X-0.765000X0.765000X0.765000X-0.765000X0.765000X0*%
%ADD18C,1.734000*%
%ADD19R,2.500000X2.500000*%
%ADD20C,2.500000*%
G04 APERTURE END LIST*
D10*
%TO.C,H1*%
X63248000Y-35291700D03*
D11*
X63248000Y-35291700D03*
%TD*%
D12*
%TO.C,U2*%
X139558000Y-64581700D03*
X139558000Y-75581700D03*
D13*
X129558000Y-72581700D03*
D14*
X129558000Y-67581700D03*
%TD*%
D10*
%TO.C,H4*%
X63238000Y-85301700D03*
D11*
X63238000Y-85301700D03*
%TD*%
D15*
%TO.C,U5*%
X109508000Y-64301700D03*
D16*
X109508000Y-66841700D03*
X109508000Y-69381700D03*
X109508000Y-71921700D03*
X109508000Y-74461700D03*
X109508000Y-77001700D03*
X109508000Y-79541700D03*
X117128000Y-79541700D03*
X117128000Y-77001700D03*
X117128000Y-74461700D03*
X117128000Y-71921700D03*
X117128000Y-69381700D03*
X117128000Y-66841700D03*
X117128000Y-64301700D03*
%TD*%
D17*
%TO.C,U3*%
X106418000Y-29891700D03*
D18*
X106418000Y-32431700D03*
X106418000Y-34971700D03*
X106418000Y-37511700D03*
X106418000Y-40051700D03*
X106418000Y-42591700D03*
X106418000Y-45131700D03*
X121658000Y-45131700D03*
X121658000Y-42591700D03*
X121658000Y-40051700D03*
X121658000Y-37511700D03*
X121658000Y-34971700D03*
X121658000Y-32431700D03*
X121658000Y-29891700D03*
%TD*%
D19*
%TO.C,U4*%
X123808000Y-57401700D03*
D20*
X123808000Y-53201700D03*
X129308000Y-57401700D03*
X129308000Y-53201700D03*
%TD*%
D10*
%TO.C,H3*%
X133268000Y-85271700D03*
D11*
X133268000Y-85271700D03*
%TD*%
D15*
%TO.C,U1*%
X72738000Y-82801700D03*
D16*
X75278000Y-82801700D03*
X77818000Y-82801700D03*
X80358000Y-82801700D03*
X82898000Y-82801700D03*
X82898000Y-80261700D03*
X80358000Y-80261700D03*
X77818000Y-80261700D03*
X75278000Y-80261700D03*
X72738000Y-80261700D03*
%TD*%
D10*
%TO.C,H2*%
X133258000Y-35291700D03*
D11*
X133258000Y-35291700D03*
%TD*%
M02*
