M48
; DRILL file {KiCad 9.0.7-9.0.7~ubuntu24.04.1} date 2026-04-13T21:17:55+0530
; FORMAT={-:-/ absolute / metric / decimal}
; #@! TF.CreationDate,2026-04-13T21:17:55+05:30
; #@! TF.GenerationSoftware,Kicad,Pcbnew,9.0.7-9.0.7~ubuntu24.04.1
; #@! TF.FileFunction,Plated,1,2,PTH
FMAT,2
METRIC
; #@! TA.AperFunction,Plated,PTH,ViaDrill
T1C0.300
; #@! TA.AperFunction,Plated,PTH,ComponentDrill
T2C1.000
; #@! TA.AperFunction,Plated,PTH,ComponentDrill
T3C1.020
; #@! TA.AperFunction,Plated,PTH,ComponentDrill
T4C1.800
; #@! TA.AperFunction,Plated,PTH,ComponentDrill
T5C1.900
; #@! TA.AperFunction,Plated,PTH,ComponentDrill
T6C5.300
%
G90
G05
T1
X79.178Y-49.217
X81.228Y-48.322
X86.614Y-52.232
X104.08Y-76.421
X115.744Y-73.192
T2
X72.738Y-80.262
X72.738Y-82.802
X75.278Y-80.262
X75.278Y-82.802
X77.818Y-80.262
X77.818Y-82.802
X80.358Y-80.262
X80.358Y-82.802
X82.898Y-80.262
X82.898Y-82.802
X109.508Y-64.302
X109.508Y-66.842
X109.508Y-69.382
X109.508Y-71.922
X109.508Y-74.462
X109.508Y-77.002
X109.508Y-79.542
X117.128Y-64.302
X117.128Y-66.842
X117.128Y-69.382
X117.128Y-71.922
X117.128Y-74.462
X117.128Y-77.002
X117.128Y-79.542
X139.558Y-64.582
X139.558Y-75.582
T3
X106.418Y-29.892
X106.418Y-32.432
X106.418Y-34.972
X106.418Y-37.512
X106.418Y-40.052
X106.418Y-42.592
X106.418Y-45.132
X121.658Y-29.892
X121.658Y-32.432
X121.658Y-34.972
X121.658Y-37.512
X121.658Y-40.052
X121.658Y-42.592
X121.658Y-45.132
T4
X123.808Y-53.202
X123.808Y-57.402
X129.308Y-53.202
X129.308Y-57.402
T5
X129.558Y-67.582
X129.558Y-72.582
T6
X63.238Y-85.302
X63.248Y-35.292
X133.258Y-35.292
X133.268Y-85.272
M30
